<?xml version="1.0" encoding="utf-8"?><svg width="102" height="70" viewBox="0 0 102 70" xmlns="http://www.w3.org/2000/svg" xmlns:xlink="http://www.w3.org/1999/xlink"><svg width="12" height="12" fill="none" viewBox="0 0 12 12" id="arrow-right" x="87" y="32" xmlns="http://www.w3.org/2000/svg"><path fill-rule="evenodd" clip-rule="evenodd" d="M8.793 6.5H1.5v-1h7.293L5.646 2.354l.708-.708L10.707 6l-4.353 4.354-.708-.708L8.793 6.5z" fill="#4774B7"/></svg><svg width="11" height="9" fill="none" viewBox="0 0 11 9" id="bird" x="70" y="49" xmlns="http://www.w3.org/2000/svg"><path d="M1 5.455L3.905 8 10 1" stroke="#fff" stroke-width="2" stroke-linecap="round" stroke-linejoin="round"/></svg><svg width="70" height="70" fill="none" viewBox="0 0 70 70" id="placeholder_2" xmlns="http://www.w3.org/2000/svg"><g clip-path="url(#cclip0)"><path d="M33.302 69.243C32.336 68.167 9.649 42.699 9.649 25.35 9.649 11.373 21.02 0 35 0s25.351 11.373 25.351 25.351c0 17.348-22.687 42.816-23.652 43.892a2.283 2.283 0 01-3.397 0z" fill="#0057D9"/><path d="M60.351 25.351C60.351 11.373 48.98 0 35.001 0v70c.622 0 1.244-.252 1.698-.757.965-1.076 23.652-26.544 23.652-43.892z" fill="#003E9A"/><path d="M35 38.106c-7.033 0-12.754-5.722-12.754-12.755S27.967 12.596 35 12.596c7.033 0 12.755 5.722 12.755 12.755S42.033 38.106 35 38.106z" fill="#EFEFEF"/></g><defs><clipPath id="cclip0"><path d="M0 0h70v70H0V0z" fill="#fff"/></clipPath></defs></svg><svg width="32" height="32" fill="none" viewBox="0 0 32 32" id="plus" x="70" xmlns="http://www.w3.org/2000/svg"><path fill-rule="evenodd" clip-rule="evenodd" d="M17.333 14.667h12v2.666h-12v12h-2.666v-12h-12v-2.666h12v-12h2.666v12z" fill="#fff"/></svg><svg width="17" height="17" fill="none" viewBox="0 0 17 17" id="whatsapp" x="70" y="32" xmlns="http://www.w3.org/2000/svg"><path d="M13.945 3.047A7.821 7.821 0 008.402.75C4.067.75.555 4.25.555 8.57c0 1.367.384 2.735 1.043 3.883L.5 16.5l4.17-1.094a8.023 8.023 0 003.732.93c4.336 0 7.848-3.5 7.848-7.82-.055-2.024-.823-3.993-2.305-5.47zm-1.756 8.312c-.165.438-.933.875-1.317.93-.33.055-.768.055-1.207-.055-.275-.109-.659-.218-1.098-.437-1.976-.82-3.238-2.79-3.347-2.953-.11-.11-.824-1.04-.824-2.024s.494-1.422.659-1.64c.165-.22.384-.22.549-.22h.384c.11 0 .274-.054.439.33.164.382.549 1.366.603 1.42a.348.348 0 010 .33c-.054.108-.11.218-.219.327-.11.11-.22.274-.274.328-.11.11-.22.22-.11.383.11.219.494.82 1.097 1.367.769.657 1.372.875 1.592.985.22.11.33.054.439-.055.11-.11.494-.547.604-.766.11-.218.274-.164.439-.109.164.055 1.152.547 1.317.656.22.11.329.164.384.219.055.164.055.547-.11.984z" fill="#fff"/></svg></svg>