<?xml version="1.0" encoding="utf-8"?><svg width="102" height="87" viewBox="0 0 102 87" xmlns="http://www.w3.org/2000/svg" xmlns:xlink="http://www.w3.org/1999/xlink"><svg width="12" height="12" fill="none" viewBox="0 0 12 12" id="arrow-right" x="87" y="32" xmlns="http://www.w3.org/2000/svg"><path fill-rule="evenodd" clip-rule="evenodd" d="M8.793 6.5H1.5v-1h7.293L5.646 2.354l.708-.708L10.707 6l-4.353 4.354-.708-.708L8.793 6.5z" fill="#4774B7"/></svg><svg width="11" height="9" fill="none" viewBox="0 0 11 9" id="bird" x="87" y="50" xmlns="http://www.w3.org/2000/svg"><path d="M1 5.455L3.905 8 10 1" stroke="#fff" stroke-width="2" stroke-linecap="round" stroke-linejoin="round"/></svg><svg width="70" height="70" fill="none" viewBox="0 0 70 70" id="placeholder_2" xmlns="http://www.w3.org/2000/svg"><g clip-path="url(#cclip0)"><path d="M33.302 69.243C32.336 68.167 9.649 42.699 9.649 25.35 9.649 11.373 21.02 0 35 0s25.351 11.373 25.351 25.351c0 17.348-22.687 42.816-23.652 43.892a2.283 2.283 0 01-3.397 0z" fill="#0057D9"/><path d="M60.351 25.351C60.351 11.373 48.98 0 35.001 0v70c.622 0 1.244-.252 1.698-.757.965-1.076 23.652-26.544 23.652-43.892z" fill="#003E9A"/><path d="M35 38.106c-7.033 0-12.754-5.722-12.754-12.755S27.967 12.596 35 12.596c7.033 0 12.755 5.722 12.755 12.755S42.033 38.106 35 38.106z" fill="#EFEFEF"/></g><defs><clipPath id="cclip0"><path d="M0 0h70v70H0V0z" fill="#fff"/></clipPath></defs></svg><svg width="32" height="32" fill="none" viewBox="0 0 32 32" id="plus" x="70" xmlns="http://www.w3.org/2000/svg"><path fill-rule="evenodd" clip-rule="evenodd" d="M17.333 14.667h12v2.666h-12v12h-2.666v-12h-12v-2.666h12v-12h2.666v12z" fill="#fff"/></svg><svg width="17" height="18" fill="none" viewBox="0 0 17 18" id="viber" x="70" y="32" xmlns="http://www.w3.org/2000/svg"><path d="M12.69.91a23.238 23.238 0 00-8.685 0C2.74 1.181 1.145 2.71.87 3.911a17.152 17.152 0 000 7.097c.33 1.2 1.924 2.73 3.134 3.002.055 0 .11.055.11.11v3.439c0 .164.22.273.33.109l1.649-1.692s1.319-1.365 1.539-1.584c0 0 .055-.054.11-.054 1.649.054 3.353-.11 5.002-.382 1.265-.273 2.86-1.802 3.134-3.003a17.15 17.15 0 000-7.097c-.33-1.146-1.924-2.675-3.189-2.948zm.055 10.263c-.274.546-.604.982-1.154 1.255l-.495.164c-.22-.055-.385-.11-.55-.164-1.759-.71-3.408-1.692-4.727-3.111a13.129 13.129 0 01-1.814-2.73c-.22-.491-.44-.928-.605-1.42-.165-.436.11-.873.385-1.2.275-.328.604-.546.99-.71.274-.164.549-.055.769.164.44.546.88 1.091 1.21 1.692.22.382.164.819-.22 1.092-.11.054-.166.109-.275.218-.055.055-.165.11-.22.219a.527.527 0 00-.055.49c.44 1.256 1.264 2.24 2.528 2.785.22.11.385.164.66.164.385-.055.55-.492.825-.71.275-.218.604-.218.934-.054.275.163.55.382.88.6.275.218.55.382.825.6.164.11.22.383.11.656zm-2.308-4.095c-.11 0-.055 0 0 0-.22 0-.275-.109-.33-.273 0-.109 0-.273-.055-.382a1.037 1.037 0 00-.385-.6l-.33-.164c-.165-.055-.275-.055-.44-.055-.165-.054-.22-.163-.22-.327 0-.11.165-.219.275-.219.88.055 1.54.546 1.65 1.584v.218c0 .11-.056.218-.165.218zm-.55-2.402c-.275-.109-.55-.218-.88-.273-.11 0-.275-.054-.385-.054-.165 0-.274-.11-.22-.273 0-.164.11-.273.275-.219.55.055 1.045.164 1.54.383.99.49 1.539 1.31 1.704 2.402V7.35c-.055.219-.44.273-.495 0 0-.054-.055-.164-.055-.218 0-.491-.11-.983-.33-1.42a2.948 2.948 0 00-1.154-1.037zm2.968 3.276c-.165 0-.274-.164-.274-.328 0-.327-.056-.655-.11-.982-.22-1.747-1.65-3.167-3.354-3.44-.275-.054-.55-.054-.77-.109-.164 0-.384 0-.44-.218-.054-.164.11-.328.276-.328h.11c2.254.055.11 0 0 0 2.308.055 4.232 1.583 4.617 3.876.055.382.11.764.11 1.201.11.164 0 .328-.165.328z" fill="#fff"/></svg><svg width="17" height="10" fill="none" viewBox="0 0 17 10" id="vk" x="70" y="50" xmlns="http://www.w3.org/2000/svg"><path d="M16.355 8.836c0-.062-.063-.062-.063-.124-.249-.498-.81-1.12-1.556-1.806-.374-.311-.56-.56-.685-.685-.187-.249-.187-.436-.125-.685.063-.187.312-.498.747-1.058.25-.312.374-.498.56-.685.935-1.246 1.37-2.055 1.246-2.429l-.062-.062c-.062-.062-.125-.124-.25-.124-.124-.063-.31-.063-.497 0H12.868l-.063.062c-.062.062-.062.062-.062.124-.249.685-.56 1.246-.872 1.868-.186.312-.373.623-.56.872-.187.25-.311.436-.436.56-.124.125-.249.187-.311.312-.063.062-.187.124-.187.062-.062 0-.125 0-.125-.062l-.186-.187c-.063-.062-.063-.187-.125-.311v-.312-.373-.374-.685-.56-.436-.374c0-.062-.062-.186-.062-.249L9.692.93C9.63.866 9.505.866 9.443.804a5.585 5.585 0 00-1.12-.125c-.997 0-1.682.063-1.931.187-.125.063-.25.125-.311.25-.125.124-.125.186-.063.186.312.062.56.187.685.374l.062.124c.063.063.063.187.125.374s.062.373.062.623v.996c0 .311-.062.498-.062.685 0 .187-.062.311-.125.373-.062.125-.062.187-.124.187 0 0 0 .062-.062.062-.063 0-.125.063-.25.063a.472.472 0 01-.248-.125.75.75 0 01-.312-.311 2.173 2.173 0 01-.373-.56c-.125-.25-.312-.499-.436-.872l-.125-.25c-.062-.124-.187-.373-.311-.684-.125-.312-.25-.56-.374-.872a.86.86 0 00-.187-.25h-.062s-.062-.061-.124-.061c-.063 0-.125-.063-.187-.063H1.348c-.249 0-.373.063-.436.125l-.062.062v.125c0 .062 0 .124.062.249.312.747.685 1.494 1.059 2.241.374.685.747 1.308.996 1.744.312.436.56.872.872 1.245.311.374.498.623.56.747l.25.25.186.186c.125.125.312.312.56.498.25.187.561.374.872.56.312.188.685.312 1.059.437.436.124.81.186 1.183.124h.934a.565.565 0 00.436-.187l.062-.062c0-.062.062-.062.062-.124v-.25c0-.249 0-.435.063-.622.062-.187.062-.311.124-.436a.86.86 0 01.187-.25l.124-.124h.063c.124-.062.311 0 .436.125.187.124.373.311.498.498.124.187.311.374.56.623.25.249.436.436.56.498l.187.124c.125.063.25.125.436.187.187.062.312.062.436.062l2.117-.062c.187 0 .374-.062.498-.124.125-.063.187-.125.187-.25v-.248c-.124-.125-.124-.187-.124-.25z" fill="#fff"/></svg><svg width="17" height="17" fill="none" viewBox="0 0 17 17" id="whatsapp" y="70" xmlns="http://www.w3.org/2000/svg"><path d="M13.945 3.047A7.821 7.821 0 008.402.75C4.067.75.555 4.25.555 8.57c0 1.367.384 2.735 1.043 3.883L.5 16.5l4.17-1.094a8.023 8.023 0 003.732.93c4.336 0 7.848-3.5 7.848-7.82-.055-2.024-.823-3.993-2.305-5.47zm-1.756 8.312c-.165.438-.933.875-1.317.93-.33.055-.768.055-1.207-.055-.275-.109-.659-.218-1.098-.437-1.976-.82-3.238-2.79-3.347-2.953-.11-.11-.824-1.04-.824-2.024s.494-1.422.659-1.64c.165-.22.384-.22.549-.22h.384c.11 0 .274-.054.439.33.164.382.549 1.366.603 1.42a.348.348 0 010 .33c-.054.108-.11.218-.219.327-.11.11-.22.274-.274.328-.11.11-.22.22-.11.383.11.219.494.82 1.097 1.367.769.657 1.372.875 1.592.985.22.11.33.054.439-.055.11-.11.494-.547.604-.766.11-.218.274-.164.439-.109.164.055 1.152.547 1.317.656.22.11.329.164.384.219.055.164.055.547-.11.984z" fill="#fff"/></svg></svg>