<?xml version="1.0" encoding="utf-8"?><svg width="60" height="60" viewBox="0 0 60 60" xmlns="http://www.w3.org/2000/svg" xmlns:xlink="http://www.w3.org/1999/xlink"><svg width="30" height="30" fill="none" viewBox="0 0 30 30" id="viber" xmlns="http://www.w3.org/2000/svg"><circle cx="15" cy="15" r="15" fill="#7C509A"/><path d="M19.69 7.91a23.237 23.237 0 00-8.685 0c-1.265.272-2.86 1.801-3.134 3.002a17.152 17.152 0 000 7.097c.33 1.2 1.924 2.73 3.134 3.002.055 0 .11.055.11.11v3.439c0 .164.22.273.33.109l1.649-1.692s1.319-1.365 1.539-1.584c0 0 .055-.054.11-.054 1.649.055 3.353-.11 5.002-.382 1.265-.273 2.86-1.802 3.134-3.003a17.15 17.15 0 000-7.097c-.33-1.146-1.924-2.675-3.189-2.948zm.055 10.263c-.274.546-.604.982-1.154 1.255l-.495.164a6.952 6.952 0 01-.55-.164c-1.759-.71-3.408-1.692-4.727-3.111a13.128 13.128 0 01-1.814-2.73c-.22-.491-.44-.928-.605-1.42-.165-.436.11-.873.385-1.2.275-.328.604-.546.99-.71.274-.164.549-.055.769.164.44.546.88 1.091 1.21 1.692.22.382.164.819-.22 1.092-.11.054-.166.109-.276.218-.054.055-.164.11-.22.219a.528.528 0 00-.054.49c.44 1.257 1.264 2.24 2.528 2.785.22.11.385.164.66.164.385-.055.55-.491.825-.71.275-.218.604-.218.934-.054.275.163.55.382.88.6.275.218.55.382.825.6.164.11.22.383.11.656zm-2.309-4.095c-.11 0-.055 0 0 0-.22 0-.274-.109-.33-.273 0-.109 0-.273-.054-.382a1.037 1.037 0 00-.385-.6l-.33-.164c-.165-.055-.275-.055-.44-.055-.165-.054-.22-.163-.22-.327 0-.11.165-.219.275-.219.88.055 1.54.546 1.65 1.584v.218c0 .11-.055.218-.166.218zm-.55-2.402c-.274-.109-.549-.218-.879-.273-.11 0-.275-.054-.385-.054-.165 0-.274-.11-.22-.273 0-.164.11-.273.275-.219.55.055 1.045.164 1.54.383.99.49 1.539 1.31 1.704 2.402V14.35c-.055.219-.44.273-.495 0 0-.054-.055-.164-.055-.218 0-.491-.11-.983-.33-1.42a2.949 2.949 0 00-1.154-1.037zm2.97 3.276c-.166 0-.276-.164-.276-.328 0-.327-.054-.655-.11-.982-.22-1.747-1.649-3.167-3.353-3.44-.275-.054-.55-.054-.77-.109-.164 0-.384 0-.44-.218-.054-.164.11-.328.276-.328h.11c2.254.055.11 0 0 0 2.308.055 4.233 1.583 4.617 3.876.055.382.11.764.11 1.201.11.164 0 .328-.165.328z" fill="#fff"/></svg><svg width="30" height="30" fill="none" viewBox="0 0 30 30" id="vk" x="30" xmlns="http://www.w3.org/2000/svg"><circle cx="15" cy="15" r="15" fill="#7294C7"/><path d="M22.355 18.836c0-.062-.063-.062-.063-.124-.249-.498-.81-1.12-1.556-1.806-.374-.311-.56-.56-.685-.685-.187-.249-.187-.436-.125-.685.063-.186.312-.498.747-1.058.25-.312.374-.498.56-.685.935-1.245 1.37-2.055 1.246-2.429l-.062-.062c-.062-.062-.125-.124-.25-.124-.124-.063-.31-.063-.497 0H18.868l-.063.062c-.062.062-.062.062-.062.124-.249.685-.56 1.246-.872 1.868-.186.312-.373.623-.56.872-.187.25-.311.436-.436.56-.124.125-.249.187-.311.312-.063.062-.187.124-.187.062-.062 0-.125 0-.125-.062l-.186-.187c-.063-.062-.063-.187-.125-.311v-.312-.373-.374-.685-.56-.436-.374c0-.062-.062-.186-.062-.249l-.187-.187c-.062-.062-.187-.062-.249-.124a5.583 5.583 0 00-1.12-.125c-.997 0-1.682.063-1.931.187-.125.063-.25.125-.311.25-.125.124-.125.186-.063.186.312.062.56.187.685.374l.063.124c.062.063.062.187.124.374s.062.373.062.623v.996c0 .311-.062.498-.062.685 0 .187-.062.311-.125.373-.062.125-.062.187-.124.187 0 0 0 .062-.062.062-.063 0-.125.063-.25.063a.472.472 0 01-.248-.125.75.75 0 01-.312-.311 2.172 2.172 0 01-.373-.56c-.125-.25-.312-.499-.436-.872l-.125-.25a8.784 8.784 0 01-.311-.684c-.125-.312-.25-.56-.374-.872-.062-.125-.124-.187-.187-.25h-.062s-.062-.061-.124-.061c-.063 0-.125-.063-.187-.063H7.348c-.249 0-.373.063-.436.125l-.062.062v.125c0 .062 0 .124.062.249.312.747.685 1.494 1.059 2.241.374.685.747 1.308.996 1.744.312.436.56.872.872 1.245.311.374.498.623.56.747l.25.25.186.186c.125.125.311.312.56.498.25.187.561.374.872.56.312.188.685.312 1.059.437.436.124.81.186 1.183.124h.934a.566.566 0 00.436-.187l.062-.062c0-.062.062-.062.062-.124v-.25c0-.249 0-.435.063-.622.062-.187.062-.312.124-.436a.86.86 0 01.187-.25l.125-.124h.062c.124-.062.311 0 .436.125.186.124.373.311.498.498.124.187.311.374.56.623.25.249.436.436.56.498l.187.124c.125.063.25.125.436.187.187.063.312.062.436.062l2.117-.062c.187 0 .374-.062.498-.124.125-.063.187-.125.187-.25v-.248c-.124-.125-.124-.187-.124-.25z" fill="#fff"/></svg><svg width="30" height="30" fill="none" viewBox="0 0 30 30" id="watsapp" y="30" xmlns="http://www.w3.org/2000/svg"><circle cx="15" cy="15" r="15" fill="#48C95F"/><path d="M20.945 9.047a7.821 7.821 0 00-5.543-2.297c-4.335 0-7.847 3.5-7.847 7.82 0 1.367.384 2.735 1.043 3.883L7.5 22.5l4.17-1.094a8.023 8.023 0 003.732.93c4.336 0 7.848-3.5 7.848-7.82-.055-2.024-.823-3.993-2.305-5.47zm-1.756 8.312c-.165.438-.933.875-1.317.93-.33.055-.768.055-1.207-.055-.275-.109-.659-.218-1.098-.437-1.976-.82-3.238-2.79-3.348-2.953-.11-.11-.823-1.04-.823-2.024s.494-1.422.659-1.64c.165-.22.384-.22.549-.22h.384c.11 0 .274-.054.439.33.165.382.549 1.366.604 1.42a.348.348 0 010 .33c-.055.108-.11.218-.22.327-.11.11-.22.274-.274.328-.11.11-.22.22-.11.383.11.219.494.82 1.097 1.367.769.657 1.372.875 1.592.985.22.11.33.054.439-.055.11-.11.494-.547.604-.766.11-.218.274-.164.439-.109.164.055 1.152.547 1.317.656.22.11.329.164.384.219.055.164.055.547-.11.984z" fill="#fff"/></svg></svg>