<?xml version="1.0" encoding="utf-8"?><svg width="140" height="130" viewBox="0 0 140 130" xmlns="http://www.w3.org/2000/svg" xmlns:xlink="http://www.w3.org/1999/xlink"><svg width="140" height="54" viewBox="0 0 140 54" id="big-logo" xmlns="http://www.w3.org/2000/svg"><path fill="#E43898" d="M26.956 0c14.888 0 26.957 12.088 26.957 27s-12.07 27-26.957 27S0 41.912 0 27 12.069 0 26.956 0zm0 6C15.377 6 5.99 15.402 5.99 27s9.387 21 20.966 21c11.58 0 20.966-9.402 20.966-21S38.535 6 26.956 6zm81.659 15.847c2.162 0 3.725.696 4.69 2.088v-1.798h6.225v12.702c0 3.016-.835 5.283-2.504 6.8-1.67 1.518-4.049 2.277-7.137 2.277-1.583 0-3.06-.17-4.43-.507-1.37-.339-2.538-.827-3.503-1.465l2.2-4.466c.618.464 1.4.841 2.345 1.131.946.29 1.853.435 2.722.435 1.312 0 2.268-.28 2.866-.841.599-.56.898-1.382.898-2.465v-.29c-.985 1.121-2.442 1.682-4.372 1.682a7.851 7.851 0 01-3.778-.943 7.136 7.136 0 01-2.794-2.697c-.695-1.17-1.043-2.508-1.043-4.016s.348-2.842 1.043-4.002a7.166 7.166 0 012.794-2.683 7.851 7.851 0 013.778-.942zM26.956 12c8.271 0 14.976 6.716 14.976 15 0 8.284-6.705 15-14.976 15-8.27 0-14.975-6.716-14.975-15 0-8.284 6.704-15 14.975-15zm63.621 9.847c1.776 0 3.364.348 4.763 1.044 1.4.696 2.49 1.667 3.272 2.914.781 1.248 1.172 2.664 1.172 4.249 0 1.585-.39 3.001-1.172 4.249-.782 1.247-1.873 2.223-3.272 2.928-1.4.706-2.987 1.059-4.763 1.059-1.756 0-3.334-.353-4.734-1.059-1.4-.705-2.494-1.681-3.286-2.928-.791-1.248-1.187-2.664-1.187-4.249 0-1.585.396-3.001 1.187-4.249.792-1.247 1.887-2.218 3.286-2.914 1.4-.696 2.978-1.044 4.734-1.044zm40.216 0c1.776 0 3.363.348 4.763 1.044 1.4.696 2.49 1.667 3.271 2.914.782 1.248 1.173 2.664 1.173 4.249 0 1.585-.39 3.001-1.173 4.249-.781 1.247-1.872 2.223-3.271 2.928-1.4.706-2.987 1.059-4.763 1.059-1.757 0-3.334-.353-4.734-1.059-1.4-.705-2.495-1.681-3.286-2.928-.791-1.248-1.187-2.664-1.187-4.249 0-1.585.396-3.001 1.187-4.249.791-1.247 1.887-2.218 3.286-2.914 1.4-.696 2.977-1.044 4.734-1.044zM71.38 17.7v14.993h9.15V38H64.547V17.7h6.833zM26.956 19c-4.41 0-7.987 3.582-7.987 8s3.576 8 7.987 8 7.987-3.582 7.987-8-3.576-8-7.987-8zm63.621 7.951c-.753 0-1.37.27-1.853.812-.482.541-.724 1.305-.724 2.291s.242 1.754.724 2.306c.483.55 1.1.826 1.853.826.753 0 1.37-.275 1.853-.826.483-.552.724-1.32.724-2.306s-.241-1.75-.724-2.291c-.482-.541-1.1-.812-1.853-.812zm40.216 0c-.753 0-1.37.27-1.853.812-.483.541-.724 1.305-.724 2.291s.241 1.754.724 2.306c.482.55 1.1.826 1.853.826.753 0 1.37-.275 1.853-.826.482-.552.724-1.32.724-2.306s-.242-1.75-.724-2.291c-.483-.541-1.1-.812-1.853-.812zm-20.44 0c-.792 0-1.444.232-1.955.696-.512.464-.768 1.073-.768 1.827s.261 1.368.782 1.841c.521.474 1.168.711 1.94.711s1.414-.237 1.925-.71c.512-.474.768-1.088.768-1.842s-.256-1.363-.768-1.827c-.511-.464-1.153-.696-1.925-.696z"/></svg><svg width="13" height="10" viewBox="0 0 13 10" id="bird--white" x="110" y="75" xmlns="http://www.w3.org/2000/svg"><path fill="#FFF" d="M11.217.398a1 1 0 111.414 1.414L5.658 8.785a1 1 0 01-1.414 0L.299 4.841a1 1 0 111.414-1.415l3.238 3.238L11.217.398z"/></svg><svg width="30" height="21" viewBox="0 0 30 21" id="burger" x="110" y="54" xmlns="http://www.w3.org/2000/svg"><path fill="#FFF" fill-rule="evenodd" d="M2.027 9h25.946C29.093 9 30 9.672 30 10.5s-.908 1.5-2.027 1.5H2.027C.907 12 0 11.328 0 10.5S.908 9 2.027 9zm0-9h25.946C29.093 0 30 .672 30 1.5S29.092 3 27.973 3H2.027C.907 3 0 2.328 0 1.5S.908 0 2.027 0zm-.175 18h16.296c1.023 0 1.852.672 1.852 1.5s-.83 1.5-1.852 1.5H1.852C.829 21 0 20.328 0 19.5S.83 18 1.852 18z"/></svg><svg width="110" height="42" viewBox="0 0 110 42" id="medium-logo" y="54" xmlns="http://www.w3.org/2000/svg"><path fill="#E43898" d="M21.18 42C9.483 42 0 32.598 0 21S9.483 0 21.18 0s21.18 9.402 21.18 21-9.483 21-21.18 21zm0-4.667c9.098 0 16.473-7.312 16.473-16.333 0-9.02-7.375-16.333-16.473-16.333-9.098 0-16.473 7.312-16.473 16.333 0 9.02 7.375 16.333 16.473 16.333zm0-4.666c-6.5 0-11.767-5.224-11.767-11.667S14.681 9.333 21.18 9.333c6.498 0 11.767 5.224 11.767 11.667S27.678 32.667 21.18 32.667zm0-5.445c3.466 0 6.275-2.786 6.275-6.222 0-3.436-2.81-6.222-6.275-6.222-3.466 0-6.276 2.786-6.276 6.222 0 3.436 2.81 6.222 6.276 6.222zm29.537-13.455h5.368v11.66h7.189v4.129H50.717v-15.79zm20.45 16.014c-1.38 0-2.62-.274-3.719-.823-1.1-.549-1.96-1.308-2.582-2.278-.621-.97-.932-2.072-.932-3.305s.31-2.334.932-3.304c.622-.97 1.483-1.726 2.582-2.267 1.1-.541 2.34-.812 3.72-.812 1.395 0 2.642.27 3.742.812 1.1.541 1.956 1.297 2.57 2.267.615.97.922 2.071.922 3.304 0 1.233-.307 2.335-.921 3.305-.615.97-1.472 1.729-2.571 2.278-1.1.549-2.347.823-3.742.823zm22.75-12.563v9.879c0 2.346-.656 4.109-1.968 5.29-1.312 1.18-3.181 1.77-5.608 1.77-1.243 0-2.404-.132-3.48-.395-1.077-.263-1.995-.643-2.753-1.139l1.729-3.473c.485.36 1.1.654 1.843.88a7.357 7.357 0 002.138.338c1.031 0 1.782-.218 2.252-.655.47-.436.705-1.075.705-1.917v-.225c-.773.872-1.918 1.308-3.435 1.308a6.219 6.219 0 01-2.968-.733 5.582 5.582 0 01-2.196-2.098c-.546-.91-.819-1.95-.819-3.124 0-1.173.273-2.21.82-3.112a5.606 5.606 0 012.195-2.087 6.219 6.219 0 012.968-.733c1.699 0 2.927.541 3.686 1.624v-1.398h4.89zm8.849 12.563c-1.38 0-2.62-.274-3.72-.823-1.1-.549-1.96-1.308-2.582-2.278-.621-.97-.932-2.072-.932-3.305s.31-2.334.932-3.304c.622-.97 1.483-1.726 2.582-2.267 1.1-.541 2.34-.812 3.72-.812 1.395 0 2.643.27 3.742.812 1.1.541 1.956 1.297 2.57 2.267.615.97.922 2.071.922 3.304 0 1.233-.307 2.335-.921 3.305-.615.97-1.471 1.729-2.57 2.278-1.1.549-2.348.823-3.743.823zm-31.598-3.97c.591 0 1.077-.214 1.456-.642.379-.43.568-1.027.568-1.794 0-.767-.19-1.36-.568-1.782-.38-.42-.865-.631-1.456-.631-.592 0-1.077.21-1.456.631-.38.421-.569 1.015-.569 1.782 0 .767.19 1.365.569 1.794.379.428.864.642 1.456.642zm15.537-.902c.607 0 1.111-.184 1.513-.553.402-.368.603-.845.603-1.432 0-.586-.201-1.06-.603-1.42-.402-.362-.906-.542-1.513-.542-.622 0-1.133.18-1.535.541-.402.361-.603.835-.603 1.421 0 .587.205 1.064.614 1.432.41.369.918.553 1.524.553zm16.06.902c.592 0 1.078-.214 1.457-.642.379-.43.569-1.027.569-1.794 0-.767-.19-1.36-.57-1.782-.378-.42-.864-.631-1.455-.631-.592 0-1.077.21-1.456.631-.38.421-.569 1.015-.569 1.782 0 .767.19 1.365.569 1.794.38.428.864.642 1.456.642z"/></svg><svg width="34" height="34" viewBox="0 0 34 34" id="small-logo" y="96" xmlns="http://www.w3.org/2000/svg"><path fill="#E43898" d="M17 0c9.389 0 17 7.611 17 17s-7.611 17-17 17S0 26.389 0 17 7.611 0 17 0zm0 3.778C9.698 3.778 3.778 9.698 3.778 17S9.698 30.222 17 30.222 30.222 24.302 30.222 17 24.302 3.778 17 3.778zm0 3.778a9.444 9.444 0 110 18.888 9.444 9.444 0 010-18.888zm0 4.407a5.037 5.037 0 100 10.074 5.037 5.037 0 000-10.074z"/></svg></svg>