<svg width="44" height="44" viewBox="0 0 44 44" fill="none" xmlns="http://www.w3.org/2000/svg">
<path fill-rule="evenodd" clip-rule="evenodd" d="M21.9999 42.1666C10.8622 42.1666 1.83325 33.1377 1.83325 21.9999C1.83325 10.8622 10.8622 1.83325 21.9999 1.83325C33.1377 1.83325 42.1666 10.8622 42.1666 21.9999C42.1666 33.1377 33.1377 42.1666 21.9999 42.1666ZM21.9999 38.5C31.1126 38.5 38.4999 31.1127 38.4999 22C38.4999 12.8873 31.1126 5.49998 21.9999 5.49998C12.8872 5.49998 5.49992 12.8873 5.49992 22C5.49992 31.1127 12.8872 38.5 21.9999 38.5ZM22.5369 30.6297L25.1296 28.037L19.0927 22L25.1296 15.963L22.5369 13.3703L13.9072 22L22.5369 30.6297Z" fill="#0057D9"/>
</svg>
