<svg width="44" height="44" viewBox="0 0 44 44" fill="none" xmlns="http://www.w3.org/2000/svg">
<path fill-rule="evenodd" clip-rule="evenodd" d="M22.0001 1.83342C33.1378 1.83342 42.1668 10.8623 42.1667 22.0001C42.1667 33.1378 33.1378 42.1667 22.0001 42.1667C10.8623 42.1667 1.83342 33.1378 1.83342 22.0001C1.83342 10.8623 10.8623 1.83342 22.0001 1.83342ZM22.0001 5.50002C12.8874 5.50002 5.50008 12.8873 5.50008 22C5.50008 31.1127 12.8874 38.5 22.0001 38.5C31.1128 38.5 38.5001 31.1127 38.5001 22C38.5001 12.8873 31.1128 5.50002 22.0001 5.50002ZM21.4631 13.3703L18.8704 15.963L24.9073 22L18.8704 28.037L21.4631 30.6297L30.0928 22L21.4631 13.3703Z" fill="white"/>
</svg>
