<svg width="70" height="70" viewBox="0 0 70 70" fill="none" xmlns="http://www.w3.org/2000/svg">
<g clip-path="url(#clip0)">
<path d="M31.6301 43.4867C31.4095 42.9489 30.8493 42.6044 30.2698 42.6461C29.7016 42.6872 29.2103 43.0872 29.0533 43.6341C28.8962 44.1821 29.1061 44.7887 29.5708 45.1209C30.029 45.4483 30.6576 45.4584 31.127 45.1466C31.6621 44.7903 31.8768 44.0795 31.6301 43.4867Z" fill="#0057D9"/>
<path d="M68.6361 44.4396C61.1464 44.4226 58.1311 41.6497 57.988 41.5135C57.7301 41.2353 57.3883 41.0772 57.0086 41.0767C57.008 41.0767 57.0075 41.0767 57.0075 41.0767C56.6278 41.0767 56.2865 41.2342 56.0286 41.5114C55.9703 41.567 55.4448 42.0476 54.3484 42.6009V29.0604H63.7179C64.283 29.0604 64.7898 28.7127 64.9932 28.1856C65.1967 27.6585 65.0547 27.0609 64.6365 26.6806L42.997 7.03853C42.7455 6.80995 42.4181 6.68338 42.0784 6.68338H23.0067C22.667 6.68338 22.3391 6.80995 22.0876 7.03799L20.7578 8.2455V1.50195C20.7578 1.13933 20.6141 0.791656 20.3578 0.535309C20.1014 0.278961 19.7532 0.134766 19.3906 0.134766H12.1034C11.3488 0.134766 10.7362 0.746796 10.7362 1.50195V17.3421L0.448117 26.6806C0.02995 27.0603 -0.111575 27.6585 0.0919007 28.1856C0.295377 28.7127 0.802197 29.0599 1.36723 29.0599L10.7367 29.0604V41.889C10.7367 42.6436 11.3488 43.2562 12.1039 43.2562C12.8591 43.2562 13.4711 42.6436 13.4711 41.889V28.2946L16.5265 25.495L26.501 16.3568H38.7886L42.4672 19.779L51.614 28.2887V43.6322C50.6196 43.9045 49.441 44.1342 48.0615 44.2661C47.2107 44.3473 46.3562 44.382 45.5017 44.3862C45.1071 44.3884 44.7445 44.4781 44.4486 44.7542C44.1741 45.0111 44.0144 45.3775 44.0144 45.754V53.6137H39.8674V31.6783C39.8674 27.6393 36.5819 24.3532 32.5428 24.3532C28.5038 24.3532 25.2177 27.6393 25.2177 31.6783V53.6137H13.4711V52.6545C13.4711 51.8994 12.8591 51.2873 12.1039 51.2873C11.3488 51.2873 10.7367 51.8994 10.7367 52.6545V54.9809C10.7367 55.736 11.3488 56.3481 12.1039 56.3481H44.0144V57.1427C44.0144 62.7375 47.8089 67.6407 53.4565 69.3444C54.655 69.7059 55.848 69.8902 57.0037 69.8928H57.0294C58.1776 69.8928 59.3627 69.7139 60.552 69.3604C66.2034 67.6818 70 62.7936 70 57.1961V45.8068C70 45.0533 69.3901 44.4418 68.6361 44.4396ZM13.4706 2.86914H18.0234V10.7273L13.4711 14.8598V2.86914H13.4706ZM13.0156 18.9656C13.0177 18.964 13.0204 18.9624 13.0225 18.9603L20.3097 12.3449C20.3103 12.3444 20.3113 12.3439 20.3119 12.3428L23.5344 9.41775H41.5503L60.1771 26.3255H53.519L44.2318 17.686L40.2568 13.9877C40.0036 13.7522 39.6709 13.6213 39.3254 13.6213H25.9686C25.6268 13.6213 25.2973 13.7495 25.0452 13.9807L13.7157 24.3612L11.5715 26.3255H4.9075L13.0156 18.9656ZM37.1331 31.6671H33.9095V27.2959C35.7718 27.878 37.1283 29.6169 37.1331 31.6671ZM31.1751 27.2959V31.6671H27.9521C27.9569 29.6169 29.3129 27.878 31.1751 27.2959ZM27.9521 53.6137V34.4015H37.1331V53.6137H27.9521ZM67.2657 57.1961C67.2657 61.5733 64.2546 65.4083 59.7734 66.7392C58.8372 67.0175 57.9143 67.1585 57.0294 67.1585C57.023 67.1585 57.0166 67.1585 57.0102 67.1585C56.1199 67.1563 55.1901 67.0111 54.2464 66.7264C49.7614 65.3736 46.7488 61.5225 46.7488 57.1427V54.9889C46.7488 54.9862 46.7488 54.9835 46.7488 54.9809V47.0944C47.8575 47.0603 48.9699 46.9433 50.0637 46.7633C51.2509 46.5695 52.3724 46.2987 53.417 45.9473C53.4587 45.9334 53.4987 45.9169 53.5382 45.8992C55.15 45.3433 56.2844 44.7008 57.0043 44.2079C58.4836 45.2285 61.7115 46.8915 67.2657 47.1425V57.1961Z" fill="#0057D9"/>
<path d="M49.3271 51.2984C48.9314 51.5488 48.6916 51.9846 48.6916 52.4535V54.4386C48.6916 55.1938 49.3036 55.8058 50.0588 55.8058H51.685V59.5752H50.8839C50.1287 59.5752 49.5167 60.1878 49.5167 60.9424C49.5167 61.6976 50.1287 62.3096 50.8839 62.3096H63.1304C63.8856 62.3096 64.4976 61.6976 64.4976 60.9424C64.4976 60.1878 63.8856 59.5752 63.1304 59.5752H62.3288V55.8058H63.9555C64.7107 55.8058 65.3227 55.1938 65.3227 54.4386V52.4535C65.3227 51.9846 65.0829 51.5488 64.6872 51.2984L57.7385 46.9004C57.2915 46.6173 56.7228 46.6173 56.2758 46.9004L49.3271 51.2984ZM54.4194 55.8058H55.6397V59.5752H54.4194V55.8058ZM59.5944 59.5752H58.3746V55.8058H59.5949V59.5752H59.5944ZM62.3758 53.0714H51.6385L57.0074 49.6738L62.3758 53.0714Z" fill="#0057D9"/>
<path d="M11.345 48.3482C11.8272 48.6703 12.4751 48.6478 12.9359 48.2964C13.3707 47.9648 13.5645 47.3848 13.4235 46.8571C13.2724 46.2921 12.7602 45.8782 12.1765 45.8462C11.5955 45.8147 11.0464 46.1698 10.8323 46.7092C10.5973 47.3015 10.8179 47.9936 11.345 48.3482Z" fill="#0057D9"/>
</g>
<defs>
<clipPath id="clip0">
<rect width="70" height="70" fill="white"/>
</clipPath>
</defs>
</svg>
