<svg width="70" height="70" viewBox="0 0 70 70" fill="none" xmlns="http://www.w3.org/2000/svg">
<g clip-path="url(#clip0)">
<path d="M7.42365 60.1518L7.41148 60.1397C6.8534 59.5819 5.94927 59.5819 5.39132 60.1397C4.83351 60.6976 4.83351 61.602 5.39132 62.1598L5.40349 62.172C5.6824 62.4509 6.04785 62.5904 6.41343 62.5904C6.77902 62.5904 7.14447 62.4509 7.42351 62.172C7.98133 61.6141 7.98133 60.7097 7.42365 60.1518Z" fill="#0057D9"/>
<path d="M23.1178 60.5222C22.2516 60.5222 21.5466 61.2271 21.5466 62.0934C21.5466 62.9596 22.2516 63.6646 23.1178 63.6646C23.9842 63.6646 24.689 62.9596 24.689 62.0934C24.689 61.2271 23.9841 60.5222 23.1178 60.5222Z" fill="#0057D9"/>
<path d="M51.5745 44.3711H51.5575C50.7687 44.3711 50.1292 45.0105 50.1292 45.7994C50.1292 46.5883 50.7687 47.2277 51.5575 47.2277H51.5745C52.3633 47.2277 53.0029 46.5883 53.0029 45.7994C53.003 45.0107 52.3633 44.3711 51.5745 44.3711Z" fill="#0057D9"/>
<path d="M65.157 33.5365C64.8605 33.2392 64.4658 33.0754 64.0458 33.075C64.0455 33.075 64.0452 33.075 64.0448 33.075C63.6252 33.075 63.2307 33.2383 62.9338 33.5351C62.6371 33.832 62.4736 34.2264 62.4736 34.6461C62.4736 35.0663 62.6373 35.4608 62.9338 35.7571C63.2401 36.0633 63.6426 36.2165 64.0448 36.2165C64.4472 36.2165 64.8495 36.0633 65.1558 35.7571C65.7679 35.145 65.7683 34.1493 65.157 33.5365Z" fill="#0057D9"/>
<path d="M42.0805 17.2884L41.8071 17.0149C42.0598 16.0623 41.8161 15.0039 41.0704 14.2582C39.9566 13.1445 38.1446 13.1443 37.0305 14.2582C35.9167 15.3721 35.9167 17.1843 37.0305 18.2983C37.5874 18.8552 38.3191 19.1337 39.0505 19.1337C39.2985 19.1337 39.546 19.0989 39.7872 19.0349L40.0606 19.3084C40.3395 19.5873 40.7051 19.7267 41.0706 19.7267C41.436 19.7267 41.8016 19.5871 42.0805 19.3084C42.6383 18.7506 42.6383 17.846 42.0805 17.2884Z" fill="#0057D9"/>
<path d="M18.4322 28.5748C16.8571 28.5748 15.5755 29.8563 15.5755 31.4316C15.5755 32.4861 16.1514 33.4069 17.0038 33.9018V34.2883C17.0038 35.0772 17.6434 35.7166 18.4321 35.7166C19.2208 35.7166 19.8604 35.0772 19.8604 34.2883V33.9018C20.7128 33.4069 21.2887 32.4862 21.2887 31.4316C21.289 29.8564 20.0074 28.5748 18.4322 28.5748Z" fill="#0057D9"/>
<path d="M51.5743 10.3764C49.8751 10.3764 48.1995 10.6086 46.5806 11.0636L43.3019 7.7848C41.591 6.07404 39.1643 5.82083 37.777 7.20826L34.913 10.0721L34.2916 9.45072C35.0031 8.34508 34.8766 6.85251 33.9099 5.88591L31.2839 3.25995C30.17 2.1461 28.3579 2.1461 27.2439 3.25995L26.0319 4.47196C25.8273 4.67649 25.6612 4.90495 25.5318 5.1479H22.9058C22.7823 4.93134 22.6314 4.7264 22.4468 4.54183L21.2348 3.32981C20.1208 2.21596 18.3088 2.21596 17.1948 3.32981L14.5688 5.95577C13.455 7.06962 13.455 8.88183 14.5688 9.99582L15.7808 11.2078C16.1333 11.5603 16.556 11.8005 17.004 11.9298V14.2018C15.7017 14.4672 14.7186 15.6215 14.7186 17.001V20.7147C14.7186 22.0942 15.7017 23.2484 17.004 23.5139V24.1179H12.9193C10.9574 24.1179 9.42037 26.0131 9.42037 28.4322V33.0667C7.95352 33.8898 6.60547 34.9122 5.4033 36.1142C-0.545759 42.0634 -1.71566 51.2714 2.55817 58.5065C2.82464 58.9576 3.30056 59.2086 3.78946 59.2086C4.03638 59.2086 4.28657 59.1445 4.51449 59.0099C5.19371 58.6086 5.41902 57.7328 5.01788 57.0535C1.40714 50.9412 2.3963 43.1613 7.42332 38.1342C8.60949 36.9479 9.96274 35.9692 11.4461 35.2244C11.9448 34.995 12.277 34.4927 12.277 33.927V28.4321C12.277 27.4913 12.7593 26.9745 12.9192 26.9745H23.9451C24.105 26.9745 24.5873 27.4915 24.5873 28.4321V37.1451H18.4321C11.8164 37.1451 6.43388 42.5274 6.43388 49.1431C6.43388 55.759 11.8164 61.1412 18.4321 61.1412C20.2776 61.1412 22.0268 60.7216 23.5903 59.9737C24.3383 59.7312 25.2131 60.0895 25.6312 60.8137C25.8722 61.2311 25.9474 61.7363 25.8376 62.1998C25.7364 62.6269 25.4914 62.9759 25.1469 63.1917C20.5668 65.3832 15.0808 65.2507 10.5218 62.5576C9.84229 62.1559 8.96674 62.3818 8.56547 63.061C8.1642 63.7402 8.38979 64.616 9.06887 65.0173C11.9808 66.7375 15.2114 67.5756 18.4214 67.5756C23.1873 67.5756 27.9063 65.7269 31.4613 62.1722C34.9414 58.692 36.858 54.0649 36.858 49.1433C36.858 44.2216 34.9414 39.5945 31.4613 36.1143C30.2598 34.9129 28.9108 33.8923 27.4442 33.0691V28.4321C27.4442 26.0127 25.9073 24.1178 23.9453 24.1178H19.8607V23.5138C21.163 23.2484 22.146 22.0941 22.146 20.7146V17.0009C22.146 15.6214 21.163 14.4671 19.8607 14.2017V11.1679L22.4467 8.58187C22.6229 8.40564 22.7681 8.21041 22.8886 8.00451H25.6312C25.7435 8.18443 25.8756 8.3556 26.0317 8.51201L28.6577 11.138C29.2146 11.6948 29.9461 11.9735 30.6779 11.9735C31.2388 11.9735 31.799 11.8082 32.2812 11.4807L32.8928 12.0924L29.9803 15.0049C29.2653 15.7198 28.96 16.7677 29.1432 17.8799C29.3001 18.8342 29.8022 19.7753 30.5567 20.5299L33.8339 23.807C33.3785 25.4263 33.1482 27.1027 33.1482 28.8023C33.1482 37.2156 38.8319 44.554 46.9703 46.6479C47.0895 46.6786 47.2094 46.6933 47.3271 46.6933C47.9632 46.6933 48.5436 46.265 48.7095 45.6204C48.9061 44.8564 48.446 44.0778 47.6821 43.8812C40.8068 42.1123 36.0051 35.9116 36.0051 28.8023C36.0051 27.1249 36.2699 25.4758 36.7923 23.9C36.9824 23.3859 36.8628 22.7959 36.4623 22.3953L32.5769 18.5099C32.246 18.1791 32.0219 17.7806 31.9619 17.4161C31.9254 17.1937 31.9648 17.0605 32.0003 17.0248L39.7969 9.22828C39.9098 9.11535 40.6164 9.13955 41.2818 9.80482L47.4426 15.9658L43.0903 20.3181C43.0899 20.3185 43.0895 20.3191 43.0891 20.3195C38.4125 24.9976 38.4129 32.6085 43.0903 37.2859C45.4294 39.6247 48.5019 40.7944 51.5743 40.7944C54.6466 40.7944 57.7191 39.6249 60.0582 37.2859C61.3635 35.9806 62.3034 34.4469 62.8804 32.8123C63.2386 32.1123 64.1103 31.7475 64.9171 31.9637C65.3826 32.0885 65.793 32.3924 66.0434 32.7978C66.2739 33.1715 66.3473 33.5919 66.2561 33.9881C64.5671 38.7761 60.5942 42.5615 55.4663 43.8808C54.7023 44.0774 54.2425 44.856 54.4389 45.62C54.6048 46.2646 55.1852 46.6928 55.8213 46.6928C55.939 46.6928 56.0588 46.6781 56.1783 46.6474C64.3165 44.5536 70.0002 37.2152 70.0002 28.8019C70 18.6423 61.7343 10.3764 51.5743 10.3764ZM27.4442 38.5735V36.4466C28.1518 36.9502 28.82 37.5131 29.4411 38.1344C32.3818 41.0749 34.0012 44.9845 34.0012 49.1433C34.0012 53.3018 32.3818 57.2116 29.4411 60.1523C29.1884 60.4049 28.9272 60.6445 28.6613 60.8766C28.562 60.3583 28.3761 59.8546 28.1054 59.3857C27.7411 58.7546 27.2477 58.2359 26.6773 57.8475C28.9861 55.6594 30.4304 52.5679 30.4304 49.1434C30.4304 45.4786 28.7771 42.1945 26.1793 39.992C26.891 39.9106 27.4442 39.307 27.4442 38.5735ZM27.5737 49.1431C27.5737 54.1838 23.4729 58.2846 18.4322 58.2846C13.3915 58.2846 9.29077 54.1838 9.29077 49.1431C9.29077 44.1024 13.3915 40.0017 18.4322 40.0017C23.4729 40.0017 27.5737 44.1024 27.5737 49.1431ZM19.2893 20.7146H17.5753V17.0009H19.2893L19.2912 20.7146C19.2911 20.7145 19.2905 20.7146 19.2893 20.7146ZM17.8022 9.18863C17.8022 9.18863 17.8021 9.18877 17.8019 9.18877C17.8019 9.18877 17.8015 9.18849 17.8008 9.18767L16.5888 7.97566L19.2148 5.3497L20.4268 6.56171L17.8022 9.18863ZM30.678 9.11781L28.0721 6.51468C28.0716 6.50115 28.071 6.48734 28.0701 6.4738L29.2639 5.27997L31.8899 7.90593L30.678 9.11781ZM58.0383 35.2661C54.4741 38.8304 48.6747 38.8305 45.1103 35.2661C41.5461 31.702 41.5461 25.9025 45.1103 22.3383C46.8925 20.5561 49.2334 19.6651 51.5743 19.6651C53.9152 19.6651 56.2561 20.5561 58.0382 22.3381C61.6026 25.9024 61.6026 31.702 58.0383 35.2661ZM65.6565 29.2047C64.9529 29.016 64.2371 28.9981 63.5591 29.1269C63.6444 25.9471 62.4797 22.7398 60.0584 20.3182C57.4669 17.7269 53.9753 16.5738 50.5809 16.8534C50.7802 16.6019 50.8912 16.2898 50.8912 15.9658C50.8912 15.5869 50.7407 15.2237 50.4729 14.9558L48.969 13.4518C49.8255 13.3076 50.696 13.2332 51.5744 13.2332C60.1593 13.2332 67.1434 20.2173 67.1434 28.8022C67.1434 29.1595 67.128 29.5137 67.1042 29.8659C66.6672 29.5693 66.1796 29.3447 65.6565 29.2047Z" fill="#0057D9"/>
</g>
<defs>
<clipPath id="clip0">
<rect width="70" height="70" fill="white"/>
</clipPath>
</defs>
</svg>
