<svg width="70" height="70" viewBox="0 0 70 70" fill="none" xmlns="http://www.w3.org/2000/svg">
<path d="M8.14648 8.1628V68.799C8.14648 69.4431 8.66859 69.9652 9.31269 69.9652H53.6238C54.2675 69.9652 54.7896 69.4431 54.7896 68.799V19.8239C54.7896 19.798 54.7771 19.7759 54.7747 19.7504C54.7689 19.6481 54.7487 19.5473 54.7151 19.4507C54.7021 19.4133 54.693 19.3772 54.6767 19.3407C54.62 19.2139 54.5412 19.0982 54.4432 18.9992L42.7826 7.33858C42.6837 7.24011 42.5674 7.16134 42.4397 7.10514C42.4046 7.09025 42.369 7.07776 42.3325 7.06672C42.235 7.03309 42.1337 7.01292 42.0304 7.0062C42.0107 7.00956 41.9877 6.99707 41.9632 6.99707H9.31269C8.66859 6.99707 8.14648 7.51869 8.14648 8.1628ZM50.8087 18.6577H43.1289V10.9779L50.8087 18.6577ZM10.4784 9.32901H40.797V19.8239C40.797 20.4676 41.3191 20.9897 41.9627 20.9897H52.4576V67.6332H10.4784V9.32901Z" fill="#0057D9"/>
<path d="M57.1219 60.6361V62.9681H60.6201C61.2642 62.9681 61.7863 62.4464 61.7863 61.8023V1.16621C61.7863 0.522104 61.2642 0 60.6201 0H16.309C15.6649 0 15.1428 0.522104 15.1428 1.16621V4.66435H17.4752V2.33194H59.4539V60.6361H57.1219Z" fill="#0057D9"/>
<path d="M17.4752 23.3218H45.4608V25.6537H17.4752V23.3218Z" fill="#0057D9"/>
<path d="M17.4752 16.3252H26.8039V18.6576H17.4752V16.3252Z" fill="#0057D9"/>
<path d="M17.4752 30.3184H36.1326V32.6508H17.4752V30.3184Z" fill="#0057D9"/>
<path d="M38.4645 30.3184H45.4608V32.6508H38.4645V30.3184Z" fill="#0057D9"/>
<path d="M17.4752 37.3145H45.4608V39.6469H17.4752V37.3145Z" fill="#0057D9"/>
<path d="M17.4752 51.3071H45.4608V53.6395H17.4752V51.3071Z" fill="#0057D9"/>
<path d="M27.9696 44.3115H45.4608V46.6434H27.9696V44.3115Z" fill="#0057D9"/>
<path d="M17.4752 44.3115H25.6377V46.6434H17.4752V44.3115Z" fill="#0057D9"/>
<path d="M17.4752 58.3042H22.1395V60.6361H17.4752V58.3042Z" fill="#0057D9"/>
<path d="M24.4714 58.3042H45.4608V60.6361H24.4714V58.3042Z" fill="#0057D9"/>
</svg>
