<svg width="70" height="70" viewBox="0 0 70 70" fill="none" xmlns="http://www.w3.org/2000/svg">
<g clip-path="url(#clip0)">
<path d="M69.8713 16.5991C69.6304 15.7031 69.0426 14.9394 68.2383 14.4763C67.4336 14.011 66.4767 13.8851 65.5791 14.126C64.6826 14.3675 63.9188 14.9547 63.4557 15.759L62.8725 16.7739C62.3183 16.4555 61.6103 16.6429 61.2863 17.1943L58.3234 22.2446L57.3084 21.6614C57.0396 21.5059 56.7195 21.4637 56.4199 21.5446C56.1197 21.626 55.8646 21.8231 55.7102 22.0931C55.3941 22.6507 55.5866 23.3592 56.1419 23.6793L57.1569 24.2626L47.2419 41.4446L44.7922 47.9889L43.6258 50.1698C42.9429 51.3579 43.0158 52.8348 43.8126 53.9494L41.188 57.1686L40.4533 55.326C40.1218 54.5047 39.3546 53.942 38.4724 53.8731C37.5895 53.8036 36.7437 54.2399 36.2886 54.9991L35.8689 55.7105L35.4725 51.0446C35.3813 49.9408 34.5264 49.0534 33.4272 48.9201C32.3273 48.7874 31.2862 49.4464 30.9347 50.4967L28.0653 59.1051C27.8648 59.7139 28.1929 60.3701 28.8 60.5751C28.9139 60.6281 29.0364 60.66 29.1617 60.668C29.6629 60.6697 30.1094 60.3502 30.2701 59.8751L33.1276 51.2667L33.5359 56.0021C33.6202 57.0125 34.3464 57.8526 35.3341 58.0816C36.3217 58.3105 37.3435 57.8754 37.8635 57.0057L38.2952 56.2937L39.0186 58.1254C39.3256 58.8972 40.0199 59.448 40.8417 59.5704C41.6636 59.6929 42.4883 59.3688 43.0078 58.7201L45.7258 55.2793C46.0265 55.3579 46.3363 55.3972 46.6473 55.3961C47.8975 55.4058 49.0583 54.7473 49.6916 53.6692L50.8581 51.7213L55.3024 46.3206L65.3222 28.9284L66.3371 29.5117C66.6077 29.6666 66.8048 29.9223 66.8851 30.2236C66.9659 30.5226 66.9238 30.8416 66.7689 31.1099L62.103 39.1937C61.927 39.4591 61.8672 39.7849 61.9378 40.0959C62.0085 40.4063 62.2027 40.6746 62.4761 40.838C62.7449 40.9941 63.065 41.0362 63.3646 40.9553C63.6648 40.8739 63.9199 40.6768 64.0743 40.4069L68.7401 32.323C69.2055 31.5182 69.3313 30.5614 69.0899 29.6637C68.8484 28.7672 68.2611 28.0035 67.4569 27.5404L66.4419 26.9572L69.3581 21.9063C69.6765 21.3521 69.4891 20.6447 68.9383 20.32L69.5216 19.3051C69.9994 18.4877 70.1259 17.5115 69.8713 16.5991ZM65.4737 16.9254C65.628 16.6555 65.8843 16.4578 66.1856 16.3775C66.4852 16.3035 66.8019 16.345 67.0719 16.4943C67.3424 16.6486 67.5395 16.9049 67.6204 17.2057C67.6944 17.5052 67.6528 17.8219 67.5036 18.0919L66.9204 19.1069L64.8905 17.9404L65.4737 16.9254ZM49.5749 49.4937L48.9916 49.1554L47.2653 48.1518L48.9216 43.7194L52.5958 45.8422L49.5749 49.4937ZM46.0755 52.8644C45.5828 52.5209 45.4313 51.8602 45.7258 51.3362L46.309 50.3218L48.3383 51.4883L47.7551 52.4913C47.5916 52.7749 47.3171 52.9766 46.9976 53.0478C46.6781 53.1184 46.3437 53.0523 46.0755 52.8644ZM53.9258 43.9296L49.8898 41.5967L59.2216 25.429L63.2575 27.762L53.9258 43.9296ZM64.424 25.744L60.3881 23.4111L62.721 19.3751L66.7569 21.7081L64.424 25.744Z" fill="#0057D9"/>
<path d="M18.4066 52.281L14.2779 56.3989L11.8048 53.9259C11.3497 53.4736 10.615 53.4736 10.1599 53.9259C9.93892 54.1451 9.81476 54.443 9.81476 54.754C9.81476 55.065 9.93892 55.3634 10.1599 55.5821L12.633 58.0552C13.0704 58.4892 13.6616 58.7324 14.2779 58.7318C14.8975 58.7352 15.4939 58.492 15.9342 58.0552L20.0515 53.9259C20.4479 53.4628 20.4212 52.7731 19.9906 52.3425C19.5594 51.9113 18.8697 51.8845 18.4066 52.281Z" fill="#0057D9"/>
<path d="M4.66586 55.419C4.66586 60.8954 9.10505 65.334 14.5808 65.334C20.0566 65.334 24.4958 60.8954 24.4958 55.419C24.4958 54.7749 23.9735 54.2526 23.3294 54.2526C22.6852 54.2526 22.1629 54.7749 22.1629 55.419C22.1629 59.6065 18.7683 63.0011 14.5808 63.0011C10.3934 63.0011 6.9988 59.6065 6.9988 55.419C6.9988 51.2316 10.3934 47.837 14.5808 47.837C16.2223 47.8325 17.82 48.365 19.13 49.3538C19.6454 49.7405 20.3767 49.6357 20.7629 49.1202C21.1496 48.6048 21.0454 47.874 20.5299 47.4873C17.5255 45.2341 13.5055 44.8719 10.1468 46.5509C6.78749 48.2306 4.66586 51.6639 4.66586 55.419Z" fill="#0057D9"/>
<path d="M41.9929 9.34319C42.6371 9.34319 43.1594 8.82147 43.1594 8.17672C43.1594 7.53254 42.6371 7.01025 41.9929 7.01025H11.6647C11.0205 7.01025 10.4982 7.53254 10.4982 8.17672V12.8426C10.4982 13.4873 11.0205 14.0091 11.6647 14.0091H41.9929C42.6371 14.0091 43.1594 13.4873 43.1594 12.8426C43.1594 12.1984 42.6371 11.6761 41.9929 11.6761H12.8312V9.34319H41.9929Z" fill="#0057D9"/>
<path d="M15.1641 16.3423C14.5199 16.3423 13.9976 16.8646 13.9976 17.5087C13.9976 18.1535 14.5199 18.6752 15.1641 18.6752H38.4935C39.1376 18.6752 39.6599 18.1535 39.6599 17.5087C39.6599 16.8646 39.1376 16.3423 38.4935 16.3423H15.1641Z" fill="#0057D9"/>
<path d="M45.4922 24.5073H19.83C19.1858 24.5073 18.6635 25.0296 18.6635 25.6738C18.6635 26.3185 19.1858 26.8402 19.83 26.8402H45.4922C46.1364 26.8402 46.6587 26.3185 46.6587 25.6738C46.6587 25.0296 46.1364 24.5073 45.4922 24.5073Z" fill="#0057D9"/>
<path d="M33.8276 32.6728C33.8276 32.0286 33.3053 31.5063 32.6611 31.5063H9.33175C8.68757 31.5063 8.16528 32.0286 8.16528 32.6728C8.16528 33.3176 8.68757 33.8393 9.33175 33.8393H32.6611C33.3053 33.8393 33.8276 33.3176 33.8276 32.6728Z" fill="#0057D9"/>
<path d="M45.4923 31.5063H37.327C36.6828 31.5063 36.1605 32.0286 36.1605 32.6728C36.1605 33.3176 36.6828 33.8393 37.327 33.8393H45.4923C46.1364 33.8393 46.6587 33.3176 46.6587 32.6728C46.6587 32.0286 46.1364 31.5063 45.4923 31.5063Z" fill="#0057D9"/>
<path d="M20.9964 39.6718C21.6406 39.6718 22.1629 39.1501 22.1629 38.5053C22.1629 37.8612 21.6406 37.3389 20.9964 37.3389H9.33175C8.68757 37.3389 8.16528 37.8612 8.16528 38.5053C8.16528 39.1501 8.68757 39.6718 9.33175 39.6718H20.9964Z" fill="#0057D9"/>
<path d="M25.6623 39.6718H33.8276C34.4718 39.6718 34.9941 39.1501 34.9941 38.5053C34.9941 37.8612 34.4718 37.3389 33.8276 37.3389H25.6623C25.0181 37.3389 24.4958 37.8612 24.4958 38.5053C24.4958 39.1501 25.0181 39.6718 25.6623 39.6718Z" fill="#0057D9"/>
<path d="M52.4911 53.6692C51.8469 53.6692 51.3246 54.1915 51.3246 54.8357V66.5004C51.3246 67.1451 50.8023 67.6669 50.1581 67.6669H3.4994C2.85523 67.6669 2.33294 67.1451 2.33294 66.5004V3.51112C2.33294 2.86695 2.85523 2.34465 3.4994 2.34465H50.1581C50.8023 2.34465 51.3246 2.86695 51.3246 3.51112V25.4177C51.3246 26.0619 51.8469 26.5842 52.4911 26.5842C53.1352 26.5842 53.6575 26.0619 53.6575 25.4177V3.51112C53.6575 1.57859 52.0907 0.0117188 50.1581 0.0117188H3.4994C1.56687 0.0117188 0 1.57859 0 3.51112V66.5004C0 68.4335 1.56687 69.9998 3.4994 69.9998H50.1581C52.0907 69.9998 53.6575 68.4335 53.6575 66.5004V54.8357C53.6575 54.1915 53.1352 53.6692 52.4911 53.6692Z" fill="#0057D9"/>
</g>
<defs>
<clipPath id="clip0">
<rect width="70" height="70" fill="white"/>
</clipPath>
</defs>
</svg>
