<svg width="42" height="42" viewBox="0 0 42 42" fill="none" xmlns="http://www.w3.org/2000/svg">
<g clip-path="url(#clip0)">
<path d="M11.1562 6.5625C11.609 6.5625 11.9766 6.19496 11.9766 5.74219C11.9766 5.28941 11.609 4.92188 11.1562 4.92188C10.7035 4.92188 10.3359 5.28941 10.3359 5.74219C10.3359 6.19496 10.7035 6.5625 11.1562 6.5625Z" fill="#0057D9"/>
<path d="M11.1562 11.4844C11.609 11.4844 11.9766 11.1168 11.9766 10.6641C11.9766 10.2113 11.609 9.84375 11.1562 9.84375C10.7035 9.84375 10.3359 10.2113 10.3359 10.6641C10.3359 11.1168 10.7035 11.4844 11.1562 11.4844Z" fill="#0057D9"/>
<path d="M7.875 42H34.125C35.482 42 36.5859 40.8961 36.5859 39.5391V10.6641C36.5859 10.441 36.4933 10.2315 36.3456 10.0841L26.5019 0.240326C26.3548 0.0932465 26.1452 0 25.9219 0H7.875C6.51796 0 5.41406 1.1039 5.41406 2.46094V39.5391C5.41406 40.8961 6.51796 42 7.875 42ZM26.7422 2.80092L33.7853 9.84375H26.7422V2.80092ZM7.05469 2.46094C7.05469 2.00848 7.42255 1.64062 7.875 1.64062H25.1016V10.6641C25.1016 11.1172 25.4688 11.4844 25.9219 11.4844H34.9453V39.5391C34.9453 39.9915 34.5775 40.3594 34.125 40.3594H7.875C7.42255 40.3594 7.05469 39.9915 7.05469 39.5391V2.46094Z" fill="#0057D9"/>
<path d="M11.1562 16.8984H30.8438C31.2968 16.8984 31.6641 16.5312 31.6641 16.0781C31.6641 15.625 31.2968 15.2578 30.8438 15.2578H11.1562C10.7032 15.2578 10.3359 15.625 10.3359 16.0781C10.3359 16.5312 10.7032 16.8984 11.1562 16.8984Z" fill="#0057D9"/>
<path d="M11.1562 21.8203H30.8438C31.2968 21.8203 31.6641 21.4531 31.6641 21C31.6641 20.5469 31.2968 20.1797 30.8438 20.1797H11.1562C10.7032 20.1797 10.3359 20.5469 10.3359 21C10.3359 21.4531 10.7032 21.8203 11.1562 21.8203Z" fill="#0057D9"/>
<path d="M14.4375 6.5625H21C21.4531 6.5625 21.8203 6.19528 21.8203 5.74219C21.8203 5.28909 21.4531 4.92188 21 4.92188H14.4375C13.9844 4.92188 13.6172 5.28909 13.6172 5.74219C13.6172 6.19528 13.9844 6.5625 14.4375 6.5625Z" fill="#0057D9"/>
<path d="M14.4375 11.4844H21C21.4531 11.4844 21.8203 11.1172 21.8203 10.6641C21.8203 10.211 21.4531 9.84375 21 9.84375H14.4375C13.9844 9.84375 13.6172 10.211 13.6172 10.6641C13.6172 11.1172 13.9844 11.4844 14.4375 11.4844Z" fill="#0057D9"/>
<path d="M11.1562 26.7422H22.6406C23.0937 26.7422 23.4609 26.375 23.4609 25.9219C23.4609 25.4688 23.0937 25.1016 22.6406 25.1016H11.1562C10.7032 25.1016 10.3359 25.4688 10.3359 25.9219C10.3359 26.375 10.7032 26.7422 11.1562 26.7422Z" fill="#0057D9"/>
<path d="M11.1562 31.6641H22.6406C23.0937 31.6641 23.4609 31.2968 23.4609 30.8438C23.4609 30.3907 23.0937 30.0234 22.6406 30.0234H11.1562C10.7032 30.0234 10.3359 30.3907 10.3359 30.8438C10.3359 31.2968 10.7032 31.6641 11.1562 31.6641Z" fill="#0057D9"/>
<path d="M11.1562 36.5859H22.6406C23.0937 36.5859 23.4609 36.2187 23.4609 35.7656C23.4609 35.3125 23.0937 34.9453 22.6406 34.9453H11.1562C10.7032 34.9453 10.3359 35.3125 10.3359 35.7656C10.3359 36.2187 10.7032 36.5859 11.1562 36.5859Z" fill="#0057D9"/>
<path d="M28.12 31.228V31.912H30.76V32.752H28.12V34H26.56V32.752H25.36V31.912H26.56V25.6H30.016C31.136 25.6 32.008 25.84 32.632 26.32C33.264 26.8 33.58 27.5 33.58 28.42C33.58 29.332 33.264 30.028 32.632 30.508C32.008 30.988 31.136 31.228 30.016 31.228H28.12ZM32.008 28.432C32.008 27.944 31.836 27.572 31.492 27.316C31.148 27.052 30.652 26.92 30.004 26.92H28.12V29.968H30.004C30.644 29.968 31.136 29.836 31.48 29.572C31.832 29.3 32.008 28.92 32.008 28.432Z" fill="#0057D9"/>
</g>
<defs>
<clipPath id="clip0">
<rect width="42" height="42" fill="white"/>
</clipPath>
</defs>
</svg>
