<svg width="70" height="70" viewBox="0 0 70 70" fill="none" xmlns="http://www.w3.org/2000/svg">
<g clip-path="url(#clip0)">
<path d="M31.2651 32.9441C30.9852 32.9441 30.7047 32.8367 30.4915 32.6236C30.0636 32.1956 30.0636 31.5043 30.4915 31.0763L60.53 1.03894C60.9579 0.611531 61.6493 0.611531 62.0772 1.03894C62.5052 1.46689 62.5052 2.15876 62.0772 2.58617L32.0388 32.6236C31.8256 32.8378 31.5451 32.9441 31.2651 32.9441Z" fill="#0057D9"/>
<path d="M64.3981 2.90505C64.1176 2.90505 63.8376 2.7982 63.6245 2.58449C63.2083 2.17097 62.4897 2.17204 62.0783 2.58449C61.6504 3.01351 60.9579 3.01244 60.53 2.58556C60.1021 2.15922 60.1021 1.46628 60.5289 1.03833C61.7674 -0.201161 63.9306 -0.203299 65.1712 1.03833C65.5991 1.46628 65.5991 2.15815 65.1712 2.58556C64.958 2.7982 64.678 2.90505 64.3981 2.90505Z" fill="#0057D9"/>
<path d="M38.225 39.9062C37.945 39.9062 37.6651 39.7993 37.4514 39.5856C37.024 39.1582 37.024 38.4663 37.4514 38.0389L67.4899 8.0015C67.9178 7.57356 68.6092 7.57356 69.0371 8.0015C69.465 8.42945 69.465 9.12079 69.0371 9.54873L38.9986 39.5856C38.7854 39.7993 38.5055 39.9062 38.225 39.9062Z" fill="#0057D9"/>
<path d="M68.2635 9.86916C67.9835 9.86916 67.7036 9.76177 67.4899 9.5486C67.0619 9.12066 67.0619 8.42932 67.4899 8.00137C67.6966 7.79461 67.8115 7.51893 67.8115 7.22669C67.8115 6.93445 67.6977 6.65983 67.4899 6.45307C67.0619 6.0262 67.0619 5.33379 67.4888 4.90584C67.9167 4.47683 68.6091 4.4779 69.0371 4.90478C69.6574 5.52506 69.9998 6.34889 69.9998 7.22669C69.9998 8.10395 69.6574 8.92939 69.0371 9.54967C68.8239 9.76284 68.5434 9.86916 68.2635 9.86916Z" fill="#0057D9"/>
<path d="M68.2635 6.77267C67.9835 6.77267 67.7036 6.66528 67.4899 6.45211L63.6245 2.58617C63.1965 2.15876 63.1965 1.46689 63.6245 1.03894C64.0519 0.611531 64.7437 0.611531 65.1712 1.03894L69.0371 4.90488C69.465 5.33282 69.465 6.02416 69.0371 6.45211C68.8239 6.66635 68.5434 6.77267 68.2635 6.77267Z" fill="#0057D9"/>
<path d="M23.5317 43.772C23.3115 43.772 23.0893 43.7052 22.897 43.5674C22.4054 43.2174 22.2906 42.5336 22.6432 42.041L30.3756 31.2131C30.7266 30.7221 31.4105 30.6083 31.902 30.9582C32.3935 31.3092 32.5084 31.9931 32.1558 32.4846L24.4233 43.3125C24.2091 43.6133 23.8731 43.772 23.5317 43.772Z" fill="#0057D9"/>
<path d="M27.3982 47.6402C27.0557 47.6402 26.7212 47.4805 26.5075 47.1818C26.1565 46.6903 26.2703 46.0064 26.7613 45.6554L37.5898 37.9214C38.0797 37.5704 38.7635 37.6842 39.1156 38.1757C39.4682 38.6667 39.3534 39.3506 38.8618 39.7021L28.0339 47.4356C27.8405 47.5745 27.6183 47.6402 27.3982 47.6402Z" fill="#0057D9"/>
<path d="M8.83139 66.2048C8.55144 66.2048 8.27095 66.0974 8.05778 65.8842C7.62983 65.4563 7.62983 64.7649 8.05778 64.337L26.6235 45.7724C27.0514 45.3444 27.7433 45.3444 28.1707 45.7724C28.5986 46.2003 28.5986 46.8917 28.1707 47.3196L9.60501 65.8842C9.3913 66.099 9.11135 66.2048 8.83139 66.2048Z" fill="#0057D9"/>
<path d="M4.96438 62.3394C4.68443 62.3394 4.40447 62.232 4.19077 62.0189C3.76336 61.5909 3.76336 60.899 4.19077 60.4716L22.757 41.9043C23.1849 41.4764 23.8763 41.4764 24.3042 41.9043C24.7316 42.3323 24.7316 43.0236 24.3042 43.4516L5.738 62.0189C5.52483 62.232 5.24487 62.3394 4.96438 62.3394Z" fill="#0057D9"/>
<path d="M6.50837 70.0749C6.21719 70.0749 5.93937 69.9601 5.73475 69.7544L0.321051 64.3391C-0.106895 63.9117 -0.106895 63.2198 0.321051 62.7918L3.41498 59.6979C3.84292 59.27 4.53426 59.27 4.96221 59.6979L10.3786 65.1106C10.5843 65.3162 10.6991 65.593 10.6991 65.8842C10.6991 66.1743 10.5843 66.4532 10.3786 66.6578L7.28198 69.7544C7.07629 69.9601 6.79954 70.0749 6.50837 70.0749ZM2.64136 63.5655L6.50837 67.4335L8.05773 65.8842L4.18859 62.0188L2.64136 63.5655Z" fill="#0057D9"/>
<path d="M62.5346 19.3327C61.6931 19.3327 60.8538 19.0132 60.2137 18.3732C59.7858 17.9452 59.7858 17.2539 60.2137 16.826C60.6417 16.398 61.333 16.398 61.761 16.826C62.1889 17.2528 62.8802 17.2528 63.3082 16.826C63.7361 16.398 64.4275 16.398 64.8554 16.826C65.2828 17.2539 65.2828 17.9452 64.8554 18.3732C64.2154 19.0132 63.376 19.3327 62.5346 19.3327Z" fill="#0057D9"/>
<path d="M60.9873 18.6936C60.7074 18.6936 60.4269 18.5862 60.2137 18.3731L59.438 17.5973C59.01 17.1694 59.01 16.478 59.438 16.0501C59.8659 15.6221 60.5572 15.6221 60.9852 16.0501L61.7609 16.8258C62.1889 17.2538 62.1889 17.9451 61.7609 18.3731C61.5478 18.5862 61.2673 18.6936 60.9873 18.6936Z" fill="#0057D9"/>
<path d="M64.0818 18.6937C63.8013 18.6937 63.5213 18.5863 63.3082 18.3731C62.8802 17.9452 62.8802 17.2538 63.3082 16.8259L65.629 14.505C66.0564 14.0771 66.7483 14.0771 67.1757 14.505C67.6037 14.933 67.6037 15.6243 67.1757 16.0523L64.8554 18.3731C64.6417 18.5863 64.3617 18.6937 64.0818 18.6937Z" fill="#0057D9"/>
<path d="M67.1757 17.1465C66.8958 17.1465 66.6158 17.0391 66.4021 16.8259L64.8554 15.2787C64.4275 14.8508 64.4275 14.1594 64.8554 13.7315C65.2828 13.3035 65.9747 13.3035 66.4021 13.7315L67.9493 15.2787C68.3773 15.7067 68.3773 16.398 67.9493 16.8259C67.7361 17.0391 67.4562 17.1465 67.1757 17.1465Z" fill="#0057D9"/>
<path d="M56.5075 7.55814C56.2276 7.55814 55.9476 7.45129 55.7339 7.23758L52.7143 4.21792C52.2863 3.78997 52.2863 3.09864 52.7143 2.67069C53.1422 2.24275 53.8335 2.24275 54.2615 2.67069L57.2811 5.69035C57.7091 6.1183 57.7091 6.81017 57.2811 7.23758C57.0679 7.45129 56.788 7.55814 56.5075 7.55814Z" fill="#0057D9"/>
<path d="M52.7153 5.31306C52.4354 5.31306 52.1549 5.20567 51.9417 4.99357C51.5138 4.56562 51.5138 3.87322 51.9417 3.44527L53.4889 1.89697C53.9169 1.46903 54.6082 1.4701 55.0361 1.89697C55.4641 2.32492 55.4641 3.01733 55.0361 3.44527L53.4889 4.99357C53.2757 5.20674 52.9953 5.31306 52.7153 5.31306Z" fill="#0057D9"/>
<path d="M45.9622 38.3638C45.4269 38.3638 44.9589 37.9711 44.8798 37.4251L44.103 32.0055C44.018 31.4071 44.4337 30.852 45.0321 30.767C45.6262 30.6815 46.1845 31.0961 46.2705 31.6945L47.0473 37.1152C47.1328 37.7136 46.7171 38.2676 46.1188 38.3536C46.0648 38.3606 46.0124 38.3638 45.9622 38.3638Z" fill="#0057D9"/>
<path d="M45.9643 38.3637C45.9152 38.3637 45.8634 38.3605 45.8132 38.3524L40.3711 37.5997C39.7722 37.5179 39.3534 36.965 39.4367 36.3666C39.5195 35.7682 40.0677 35.3445 40.6698 35.4321L46.1118 36.1849C46.7107 36.2672 47.1296 36.8196 47.0462 37.418C46.9698 37.9672 46.5029 38.3637 45.9643 38.3637Z" fill="#0057D9"/>
<path d="M43.2487 20.9563C42.7123 20.9563 42.2443 20.5636 42.1663 20.0176L41.3905 14.5991C41.3056 14.0018 41.7212 13.4472 42.3196 13.3617C42.9169 13.2741 43.4731 13.6908 43.558 14.2898L44.3338 19.7077C44.4192 20.3056 44.0036 20.8601 43.4052 20.9456C43.3523 20.9531 43.3 20.9563 43.2487 20.9563Z" fill="#0057D9"/>
<path d="M47.9187 16.2896C47.869 16.2896 47.8177 16.2864 47.7675 16.28L42.3239 15.5283C41.7255 15.4449 41.3066 14.8925 41.3894 14.2952C41.4706 13.6979 42.022 13.2763 42.6225 13.3607L48.0661 14.1124C48.6645 14.1958 49.0839 14.7482 49.0006 15.3455C48.9263 15.8926 48.4567 16.2896 47.9187 16.2896Z" fill="#0057D9"/>
<path d="M34.6727 29.3796C34.3922 29.3796 34.1122 29.2723 33.8991 29.0591L32.4272 27.5872C31.9992 27.1592 31.9992 26.4679 32.4272 26.04C32.8551 25.612 33.5464 25.612 33.9744 26.04L35.4458 27.5119C35.8737 27.9398 35.8737 28.6311 35.4458 29.0591C35.2326 29.2733 34.9526 29.3796 34.6727 29.3796Z" fill="#0057D9"/>
<path d="M49.5151 22.4292C49.2346 22.4292 48.9546 22.3218 48.7415 22.1086C48.3135 21.6807 48.3135 20.9883 48.7415 20.5614L51.837 17.467C52.2644 17.039 52.9563 17.039 53.3837 17.467C53.8116 17.8949 53.8116 18.5873 53.3837 19.0142L50.2887 22.1086C50.0739 22.3218 49.794 22.4292 49.5151 22.4292Z" fill="#0057D9"/>
<path d="M53.3837 20.1085C53.1037 20.1085 52.8238 20.0011 52.6101 19.788L51.0634 18.2407C50.6354 17.8128 50.6354 17.1215 51.0634 16.6935C51.4908 16.2656 52.1827 16.2656 52.6101 16.6935L54.1573 18.2407C54.5853 18.6687 54.5853 19.36 54.1573 19.788C53.9431 20.0011 53.6642 20.1085 53.3837 20.1085Z" fill="#0057D9"/>
<path d="M52.9285 28.2982C52.6485 28.2982 52.3686 28.1913 52.1549 27.9776L50.6071 26.4293C50.1792 26.0019 50.1792 25.31 50.6071 24.8821C51.0345 24.4547 51.7264 24.4547 52.1538 24.8821L53.7021 26.4304C54.1301 26.8583 54.1301 27.5497 53.7021 27.9776C53.4879 28.1924 53.209 28.2982 52.9285 28.2982Z" fill="#0057D9"/>
<path d="M42.4543 27.9788C41.8489 27.9788 41.3547 27.4888 41.3547 26.8846C41.3547 26.2809 41.8382 25.7904 42.442 25.7904H42.4543C43.058 25.7904 43.5484 26.2809 43.5484 26.8846C43.5484 27.4888 43.0569 27.9788 42.4543 27.9788Z" fill="#0057D9"/>
<path d="M27.3971 47.6401H19.647C19.0422 47.6401 18.5529 47.1508 18.5529 46.546C18.5529 45.9406 19.0422 45.4518 19.647 45.4518H27.3971C28.0024 45.4518 28.4912 45.9406 28.4912 46.546C28.4912 47.1508 28.0013 47.6401 27.3971 47.6401Z" fill="#0057D9"/>
<path d="M22.7426 52.2947H14.9925C14.3877 52.2947 13.8983 51.8053 13.8983 51.2005C13.8983 50.5952 14.3877 50.1063 14.9925 50.1063H22.7426C23.3479 50.1063 23.8367 50.5952 23.8367 51.2005C23.8367 51.8053 23.3479 52.2947 22.7426 52.2947Z" fill="#0057D9"/>
<path d="M18.0891 56.9492H10.3391C9.73429 56.9492 9.2449 56.4604 9.2449 55.855C9.2449 55.2503 9.73429 54.7609 10.3391 54.7609H18.0891C18.6944 54.7609 19.1833 55.2503 19.1833 55.855C19.1833 56.4604 18.6944 56.9492 18.0891 56.9492Z" fill="#0057D9"/>
<path d="M5.68457 61.6037C5.08031 61.6037 4.59039 61.1149 4.59039 60.5095C4.59039 59.9058 5.07925 59.4153 5.68457 59.4153L13.4346 59.4132C14.0383 59.4132 14.5288 59.9026 14.5288 60.5074C14.5288 61.1117 14.0394 61.6016 13.4346 61.6016L5.68457 61.6037Z" fill="#0057D9"/>
</g>
<defs>
<clipPath id="clip0">
<rect width="70" height="70" fill="white"/>
</clipPath>
</defs>
</svg>
