<svg width="30" height="30" viewBox="0 0 30 30" fill="none" xmlns="http://www.w3.org/2000/svg">
<path fill-rule="evenodd" clip-rule="evenodd" d="M0 15C0 23.2843 6.71573 30 15 30C23.2843 30 30 23.2843 30 15C30 6.71573 23.2843 0 15 0C6.71573 0 0 6.71573 0 15ZM27.2728 14.9999C27.2728 21.7779 21.7781 27.2726 15 27.2726C8.22199 27.2726 2.7273 21.7779 2.7273 14.9999C2.7273 8.22181 8.22199 2.72713 15 2.72713C21.7781 2.72713 27.2728 8.22181 27.2728 14.9999ZM15.0005 23.1795C15.7538 23.1795 16.3645 22.5689 16.3645 21.8158C16.3645 21.0627 15.7538 20.4522 15.0005 20.4522C14.2471 20.4522 13.6364 21.0627 13.6364 21.8158C13.6364 22.5689 14.2471 23.1795 15.0005 23.1795ZM16.3686 6.81587H13.6404V17.725H16.3686V6.81587Z" fill="#FF5A36"/>
</svg>
