<svg width="42" height="42" viewBox="0 0 42 42" fill="none" xmlns="http://www.w3.org/2000/svg">
<g clip-path="url(#clip0)">
<path d="M41.3764 24.6853L36.5856 14.424L38.6536 15.0172C39.1078 15.1475 39.5817 14.8852 39.7117 14.4306C39.842 13.9765 39.5797 13.5029 39.1255 13.3726L24.7462 9.24618C24.7492 9.18469 24.7509 9.1232 24.7509 9.06137C24.7512 7.35394 23.5986 5.86173 21.9463 5.43161C20.294 5.00116 18.5598 5.74142 17.7273 7.23195L3.34668 3.10591C2.8925 2.97557 2.4186 3.23825 2.28826 3.69243C2.15826 4.14661 2.42061 4.62017 2.87479 4.75051L5.71282 5.56496L0.573147 16.5735C0.230257 16.6935 0.000327021 17.017 -7.17928e-06 17.3806C-0.00100979 20.1582 1.673 22.662 4.24 23.7224C6.80699 24.7832 9.76032 24.191 11.7201 22.2229C13.0258 20.9499 13.7634 19.2044 13.7667 17.3806C13.7667 16.9976 13.5117 16.6614 13.1431 16.5575L8.36637 6.3266L17.2541 8.87656C17.2511 8.93805 17.2494 8.99954 17.2494 9.0617C17.2521 10.8026 18.4502 12.3135 20.1446 12.7125V29.6595H17.7831C15.8962 29.6595 14.3268 31.1738 14.3268 33.061V33.5576C12.739 33.8918 11.5991 35.2881 11.5891 36.911V38.1088C11.6034 38.5917 11.9955 38.978 12.4787 38.985H29.5216C30.0049 38.978 30.3969 38.5917 30.4112 38.1088V36.911C30.4012 35.2881 29.2613 33.8918 27.6735 33.5576V33.061C27.6735 31.1738 26.1037 29.6595 24.2172 29.6595H21.8557V12.7125C22.881 12.4702 23.7576 11.8092 24.273 10.8904L33.9568 13.6693L28.8064 24.7013C28.4632 24.8213 28.2333 25.1448 28.2329 25.5081C28.2323 28.2856 29.9063 30.7894 32.4733 31.8499C35.0402 32.9106 37.9932 32.3187 39.953 30.3506C41.2587 29.0773 41.9966 27.3318 42 25.5081C41.9996 25.1251 41.745 24.7892 41.3764 24.6853ZM6.8618 7.1073L11.2395 16.484H2.48444L6.8618 7.1073ZM6.8618 22.4899C4.34193 22.5046 2.18667 20.6825 1.78228 18.1951H11.9804C11.5449 20.6805 9.38535 22.4929 6.8618 22.4899ZM28.7001 36.911V37.2739H13.3002V36.911C13.3002 35.9675 14.1023 35.2206 15.0454 35.2206H26.9549C27.8981 35.2206 28.7001 35.9675 28.7001 36.911ZM25.9624 33.061V33.5095H16.0379V33.061C16.0379 32.1175 16.84 31.3706 17.7831 31.3706H24.2172C25.1603 31.3706 25.9624 32.1175 25.9624 33.061ZM21.0002 11.101C20.1302 11.1017 19.3556 10.5509 19.0705 9.7291C18.7854 8.9073 19.0524 7.99527 19.7355 7.45687C20.419 6.91847 21.3684 6.87235 22.1007 7.34224C22.8329 7.81179 23.1868 8.69375 22.9826 9.53928C22.9609 9.59342 22.9449 9.64923 22.9345 9.70638C22.6561 10.5385 21.8774 11.1 21.0002 11.101ZM39.4728 24.6117H30.7177L35.0951 15.2351L39.4728 24.6117ZM35.0951 30.6177C32.5752 30.6324 30.4199 28.8103 30.0155 26.3228H40.2137C39.7782 28.8083 37.6186 30.6207 35.0951 30.6177Z" fill="#0057D9"/>
</g>
<defs>
<clipPath id="clip0">
<rect y="0.000488281" width="42" height="42" fill="white"/>
</clipPath>
</defs>
</svg>
