<svg width="70" height="70" viewBox="0 0 70 70" fill="none" xmlns="http://www.w3.org/2000/svg">
<path d="M35 38.3871C37.1824 38.3871 39.3276 38.9606 41.2052 40.0456L42.3353 38.0913C40.1156 36.8076 37.5787 36.129 35 36.129C26.9071 36.129 20.3226 42.7135 20.3226 50.8065C20.3226 54.425 21.6503 57.9002 24.0619 60.5929L25.7442 59.0868C23.704 56.8084 22.5806 53.8673 22.5806 50.8065C22.5806 43.9589 28.1524 38.3871 35 38.3871Z" fill="#0057D9"/>
<path d="M44.7853 39.8662L43.2792 41.5485C45.9098 43.9036 47.4194 47.2783 47.4194 50.8065C47.4194 57.6541 41.8476 63.2259 35 63.2259C32.3795 63.2259 29.8742 62.4198 27.755 60.8956L26.4363 62.728C28.9416 64.5311 31.9031 65.484 35 65.484C43.0929 65.484 49.6774 58.8994 49.6774 50.8065C49.6774 46.637 47.8935 42.6493 44.7853 39.8662Z" fill="#0057D9"/>
<path d="M7.90323 49.6775H5.64516V51.9356H7.90323V49.6775Z" fill="#0057D9"/>
<path d="M13.5484 49.6775H11.2903V51.9356H13.5484V49.6775Z" fill="#0057D9"/>
<path d="M2.25806 49.6775H0V51.9356H2.25806V49.6775Z" fill="#0057D9"/>
<path d="M64.3548 49.6775H62.0968V51.9356H64.3548V49.6775Z" fill="#0057D9"/>
<path d="M70 49.6775H67.7419V51.9356H70V49.6775Z" fill="#0057D9"/>
<path d="M58.7097 49.6775H56.4516V51.9356H58.7097V49.6775Z" fill="#0057D9"/>
<path d="M35 31.6129C24.4164 31.6129 15.8064 40.2229 15.8064 50.8065C15.8064 61.39 24.4164 70 35 70C45.5835 70 54.1935 61.39 54.1935 50.8065C54.1935 40.2229 45.5835 31.6129 35 31.6129ZM35 67.742C25.6618 67.742 18.0645 60.1447 18.0645 50.8065C18.0645 41.4682 25.6618 33.871 35 33.871C44.3382 33.871 51.9355 41.4682 51.9355 50.8065C51.9355 60.1447 44.3382 67.742 35 67.742Z" fill="#0057D9"/>
<path d="M35 18.0645C33.1326 18.0645 31.6129 19.5841 31.6129 21.4516C31.6129 23.319 33.1326 24.8386 35 24.8386C36.8674 24.8386 38.3871 23.319 38.3871 21.4516C38.3871 19.5841 36.8674 18.0645 35 18.0645ZM35 22.5806C34.3779 22.5806 33.871 22.0736 33.871 21.4516C33.871 20.8295 34.3779 20.3225 35 20.3225C35.6221 20.3225 36.129 20.8295 36.129 21.4516C36.129 22.0736 35.6221 22.5806 35 22.5806Z" fill="#0057D9"/>
<path d="M40.6452 15.8065V15.9306C40.2997 15.5773 39.9215 15.2589 39.5161 14.9744V0H30.4839V14.9755C30.0786 15.2589 29.7003 15.5784 29.3548 15.9318V15.8065H16.3213L3.3871 35.796V41.7742H12.4194V36.129H16.9355V30.4839H22.5806V24.8387H27.8702C29.1415 27.5044 31.8556 29.3548 35 29.3548C38.1444 29.3548 40.8586 27.5044 42.1298 24.8387H47.4194V30.4839H53.0645V36.129H57.5807V41.7742H66.6129V35.796L53.6787 15.8065H40.6452ZM32.7419 2.25806H37.2581V13.8815C36.5423 13.6669 35.7847 13.5484 35 13.5484C34.2153 13.5484 33.4577 13.6669 32.7419 13.8815V2.25806ZM27.0968 21.4516C27.0968 21.8355 27.134 22.2103 27.1871 22.5806H20.3226V28.2258H14.6774V33.871H10.1613V39.5161H5.64516V36.4621L17.5497 18.0645H27.8702C27.379 19.0931 27.0968 20.2379 27.0968 21.4516ZM35 27.0968C31.8873 27.0968 29.3548 24.5644 29.3548 21.4516C29.3548 18.3389 31.8873 15.8065 35 15.8065C38.1127 15.8065 40.6452 18.3389 40.6452 21.4516C40.6452 24.5644 38.1127 27.0968 35 27.0968ZM64.3548 39.5161H59.8387V33.871H55.3226V28.2258H49.6774V22.5806H42.8129C42.866 22.2103 42.9032 21.8355 42.9032 21.4516C42.9032 20.2379 42.621 19.0931 42.1298 18.0645H52.4503L64.3548 36.4621V39.5161Z" fill="#0057D9"/>
<path d="M32.87 52.905V53.79H36.2V54.645H32.87V56.4H31.355V54.645H29.825V53.79H31.355V45.9H35.48C36.85 45.9 37.92 46.205 38.69 46.815C39.46 47.415 39.845 48.275 39.845 49.395C39.845 50.525 39.46 51.395 38.69 52.005C37.92 52.605 36.85 52.905 35.48 52.905H32.87ZM38.33 49.41C38.33 48.7 38.085 48.155 37.595 47.775C37.105 47.395 36.4 47.205 35.48 47.205H32.87V51.66H35.48C36.39 51.66 37.09 51.465 37.58 51.075C38.08 50.675 38.33 50.12 38.33 49.41Z" fill="#0057D9"/>
</svg>
