<svg width="42" height="42" viewBox="0 0 42 42" fill="none" xmlns="http://www.w3.org/2000/svg">
<g clip-path="url(#clip0)">
<path d="M6.9785 37.3185C6.826 37.1658 6.61436 37.0781 6.39862 37.0781C6.18288 37.0781 5.97124 37.1658 5.81866 37.3185C5.66608 37.4711 5.57831 37.6827 5.57831 37.8984C5.57831 38.1142 5.666 38.3258 5.81866 38.4783C5.97124 38.6309 6.18288 38.7188 6.39862 38.7188C6.61436 38.7188 6.826 38.631 6.9785 38.4783C7.13108 38.3258 7.21893 38.1142 7.21893 37.8984C7.21893 37.6827 7.13116 37.4711 6.9785 37.3185Z" fill="black"/>
<path d="M38.5156 15.0065C38.363 14.8538 38.1522 14.7661 37.9356 14.7661C37.7199 14.7661 37.5082 14.8538 37.3556 15.0065C37.2032 15.159 37.1153 15.3707 37.1153 15.5864C37.1153 15.8022 37.2031 16.0138 37.3556 16.1663C37.5082 16.3189 37.7199 16.4067 37.9356 16.4067C38.1522 16.4067 38.363 16.319 38.5156 16.1663C38.6689 16.0138 38.7567 15.8022 38.7567 15.5864C38.7567 15.3707 38.6689 15.159 38.5156 15.0065Z" fill="black"/>
<path d="M41.7593 0.24027C41.6054 0.0864609 41.3967 0 41.1791 0L20.9999 0.00106641C20.5469 0.00106641 20.1796 0.368402 20.1796 0.821379V3.16723L12.404 5.25074C11.9663 5.36804 11.7066 5.81782 11.8239 6.25537L15.8539 21.2951L12.3676 24.7814C11.9239 24.1335 11.1789 23.7074 10.3362 23.7074H2.46147C1.1045 23.7074 0.000610352 24.8114 0.000610352 26.1683V39.5391C0.000610352 40.896 1.1045 42 2.46147 42H10.3363C11.4891 42 12.4589 41.203 12.7246 40.1313L13.7 40.9819C14.453 41.6385 15.4176 42.0001 16.4167 42.0001H41.1792C41.6322 42.0001 41.9995 41.6327 41.9995 41.1798V0.820312C41.9994 0.602766 41.9131 0.394078 41.7593 0.24027ZM11.1565 39.5391C11.1565 39.9914 10.7885 40.3595 10.3361 40.3595H2.46138C2.00906 40.3595 1.64107 39.9915 1.64107 39.5391V26.1684C1.64107 25.7161 2.00906 25.3481 2.46138 25.3481H5.57849V34.7977C5.57849 35.2506 5.94582 35.618 6.3988 35.618C6.85178 35.618 7.21911 35.2506 7.21911 34.7977V25.3481H10.3362C10.7885 25.3481 11.1565 25.7161 11.1565 26.1684V39.5391H11.1565ZM13.6209 6.62312L20.1796 4.86568V7.90535L19.6299 8.05268C19.4196 8.10904 19.2405 8.24644 19.1318 8.43486C19.023 8.62329 18.9935 8.84715 19.0498 9.05732C19.3651 10.2337 18.6644 11.4472 17.488 11.7625C17.2776 11.8189 17.0982 11.9565 16.9895 12.1454C16.8808 12.3341 16.8516 12.5584 16.9084 12.7687L20.1059 24.609H18.4595L17.6111 21.2897C17.5841 21.184 17.5368 21.0866 17.4736 21.002L13.6209 6.62312ZM20.1796 11.6672V18.5891L18.6835 13.0491C19.3085 12.7264 19.8199 12.2436 20.1796 11.6672ZM31.9646 40.3594H16.4165C15.814 40.3594 15.2322 40.1413 14.778 39.7454L12.7971 38.0177V26.6722L16.3784 23.0909L17.0279 25.6322C17.1208 25.9954 17.4478 26.2493 17.8226 26.2493L33.9503 26.2503C34.5836 26.2503 35.0987 26.7655 35.0987 27.3988C35.0987 28.032 34.5836 28.5472 33.9503 28.5472H25.6865C25.2335 28.5472 24.8662 28.9145 24.8662 29.3675C24.8662 29.8205 25.2335 30.1878 25.6865 30.1878H36.5179C37.1512 30.1878 37.6663 30.703 37.6663 31.3363C37.6663 31.9695 37.1512 32.4847 36.5179 32.4847H25.6865C25.2335 32.4847 24.8662 32.852 24.8662 33.305C24.8662 33.758 25.2335 34.1253 25.6865 34.1253H34.7627C35.3959 34.1253 35.9111 34.6405 35.9111 35.2738C35.9111 35.907 35.3959 36.4222 34.7627 36.4222H25.6865C25.2335 36.4222 24.8662 36.7895 24.8662 37.2425C24.8662 37.6955 25.2335 38.0628 25.6865 38.0628H31.9646C32.5979 38.0628 33.113 38.578 33.113 39.2113C33.1129 39.8442 32.5978 40.3594 31.9646 40.3594ZM40.3589 40.3594H40.3588H34.5052C34.6642 40.0089 34.7536 39.6203 34.7536 39.2109C34.7536 38.8016 34.6642 38.413 34.5052 38.0625H34.7627C36.3005 38.0625 37.5516 36.8114 37.5516 35.2735C37.5516 34.825 37.4446 34.4011 37.2556 34.0252C38.4365 33.7009 39.3068 32.6185 39.3068 31.3361C39.3068 30.714 39.1019 30.1389 38.7563 29.6746V19.2779C38.7563 18.8249 38.3889 18.4576 37.936 18.4576C37.483 18.4576 37.1157 18.8249 37.1157 19.2779V28.6124C36.9229 28.5702 36.723 28.5472 36.5177 28.5472H36.4908C36.6499 28.1967 36.7392 27.8081 36.7392 27.3988C36.7392 25.8608 35.4881 24.6098 33.9502 24.6098H32.6316C34.0318 24.0093 35.0152 22.6176 35.0152 21C35.0152 18.8353 33.2541 17.0741 31.0894 17.0741C28.9247 17.0741 27.1636 18.8353 27.1636 21C27.1636 22.6176 28.1471 24.0093 29.5472 24.6098H25.0631V9.0122C26.5285 8.69285 27.6848 7.53662 28.0041 6.07113H34.1746C34.4939 7.53662 35.6502 8.69285 37.1156 9.0122V11.5626C37.1156 12.0155 37.4829 12.3829 37.9359 12.3829C38.3889 12.3829 38.7562 12.0155 38.7562 11.5626V8.27982C38.7562 7.82685 38.3889 7.45951 37.9359 7.45951C36.718 7.45951 35.7273 6.46866 35.7273 5.25082C35.7273 4.79784 35.3599 4.43051 34.907 4.43051H27.2718C26.8188 4.43051 26.4515 4.79784 26.4515 5.25082C26.4515 6.46874 25.4607 7.45951 24.2429 7.45951C23.7899 7.45951 23.4226 7.82685 23.4226 8.27982V24.6097H21.8203V1.64153L40.3589 1.64062V40.3594ZM31.0896 23.2852C29.8295 23.2852 28.8044 22.2601 28.8044 21.0001C28.8044 19.7401 29.8296 18.7149 31.0896 18.7149C32.3496 18.7149 33.3747 19.74 33.3747 21C33.3747 22.26 32.3496 23.2852 31.0896 23.2852Z" fill="#0057D9"/>
</g>
<defs>
<clipPath id="clip0">
<rect width="42" height="42" fill="white"/>
</clipPath>
</defs>
</svg>
