<svg width="70" height="70" viewBox="0 0 70 70" fill="none" xmlns="http://www.w3.org/2000/svg">
<g clip-path="url(#clip0)">
<path d="M65.1048 48.8639C63.8097 36.2676 48.0374 30.9062 39.4225 40.5128C30.9112 50.0052 37.6671 65.1468 50.3899 65.1468C59.1623 65.1473 65.9988 57.5584 65.1048 48.8639ZM50.3888 63.0811C43.9684 63.0811 38.4446 58.2137 37.7723 51.6741C36.5701 39.9772 50.3787 33.2774 58.8996 40.9214C67.4637 48.6049 62.1696 63.0811 50.3888 63.0811Z" fill="#0057D9"/>
<path d="M59.6708 44.6691C59.267 44.2659 58.6128 44.2659 58.2096 44.6691L46.596 56.2827L41.7014 51.3886C41.2981 50.9854 40.6439 50.9849 40.2407 51.3886C39.837 51.7918 39.837 52.4461 40.2407 52.8493L45.2502 57.8587C45.9936 58.6032 47.1973 58.6032 47.9413 57.8593L59.6708 46.1298C60.074 45.7265 60.074 45.0729 59.6708 44.6691Z" fill="#0057D9"/>
<path d="M37.5998 6.84814H8.54067C6.96947 6.84814 5.69094 8.12775 5.69094 9.69948V19.8284C5.69094 21.4001 6.96947 22.6792 8.54067 22.6792H37.5998C39.1715 22.6792 40.4495 21.4001 40.4495 19.8284V9.69948C40.4495 8.12775 39.1715 6.84814 37.5998 6.84814ZM38.3833 19.8284C38.3833 20.261 38.0324 20.6135 37.5998 20.6135H8.54067C8.10862 20.6135 7.75721 20.261 7.75721 19.8284V9.69948C7.75721 9.26689 8.10862 8.91441 8.54067 8.91441H37.5998C38.0324 8.91441 38.3833 9.26689 38.3833 9.69948V19.8284Z" fill="#0057D9"/>
<path d="M34.961 11.1514H11.1799C10.609 11.1514 10.1465 11.6139 10.1465 12.1842C10.1465 12.7551 10.609 13.2176 11.1799 13.2176H34.961C35.5314 13.2176 35.9939 12.7551 35.9939 12.1842C35.9939 11.6139 35.5314 11.1514 34.961 11.1514Z" fill="#0057D9"/>
<path d="M28.5453 16.311H24.6777C24.1073 16.311 23.6448 16.7741 23.6448 17.3439C23.6448 17.9159 24.1073 18.3773 24.6777 18.3773H28.5453C29.1152 18.3773 29.5782 17.9159 29.5782 17.3439C29.5782 16.7741 29.1152 16.311 28.5453 16.311Z" fill="#0057D9"/>
<path d="M20.5457 16.311H11.1799C10.6096 16.311 10.1465 16.7741 10.1465 17.3439C10.1465 17.9159 10.6096 18.3773 11.1799 18.3773H20.5457C21.1161 18.3773 21.5786 17.9159 21.5786 17.3439C21.5786 16.7741 21.1161 16.311 20.5457 16.311Z" fill="#0057D9"/>
<path d="M34.961 31.439H11.1799C10.609 31.439 10.1465 31.9015 10.1465 32.4724C10.1465 33.0427 10.609 33.5052 11.1799 33.5052H34.961C35.5314 33.5052 35.9939 33.0427 35.9939 32.4724C35.9939 31.9015 35.5314 31.439 34.961 31.439Z" fill="#0057D9"/>
<path d="M17.9582 36.5991H11.1799C10.609 36.5991 10.1465 37.0616 10.1465 37.632C10.1465 38.2029 10.609 38.6654 11.1799 38.6654H17.9582C18.5286 38.6654 18.9911 38.2029 18.9911 37.632C18.9911 37.0616 18.5286 36.5991 17.9582 36.5991Z" fill="#0057D9"/>
<path d="M11.1799 53.7928H28.2009C28.7713 53.7928 29.2338 53.3303 29.2338 52.76C29.2338 52.1891 28.7713 51.7266 28.2009 51.7266H11.1799C10.609 51.7266 10.1465 52.1891 10.1465 52.76C10.1465 53.3303 10.609 53.7928 11.1799 53.7928Z" fill="#0057D9"/>
<path d="M19.4439 56.8867H11.1799C10.6096 56.8867 10.1465 57.3497 10.1465 57.9201C10.1465 58.49 10.6096 58.953 11.1799 58.953H19.4439C20.0138 58.953 20.4768 58.49 20.4768 57.9201C20.4768 57.3497 20.0138 56.8867 19.4439 56.8867Z" fill="#0057D9"/>
<path d="M29.9184 56.8867H23.576C23.0056 56.8867 22.5426 57.3497 22.5426 57.9201C22.5426 58.49 23.0056 58.953 23.576 58.953H29.9184C30.4899 58.953 30.9513 58.49 30.9513 57.9201C30.9513 57.3497 30.4899 56.8867 29.9184 56.8867Z" fill="#0057D9"/>
<path d="M63.4978 35.7947C58.6395 31.4357 52.1443 29.9083 46.1404 31.2536V3.45909C46.1404 1.62727 44.6504 0.136719 42.817 0.136719H3.32344C1.49002 0.136719 0 1.62727 0 3.45909V66.6456C0 68.4774 1.49002 69.9674 3.32344 69.9674H42.817C43.6282 69.9674 44.3722 69.6769 44.949 69.1936C49.0932 70.3979 53.4597 70.1656 57.3257 68.7097C57.8603 68.5089 58.13 67.9124 57.9292 67.3794C57.7279 66.8453 57.1319 66.5751 56.5989 66.7764C50.5037 69.0665 43.3879 67.867 38.3806 63.147C26.9256 52.3547 34.4643 32.8472 50.4337 32.8472C59.4374 32.8472 66.9233 39.6111 67.8445 48.5816C68.5217 55.173 65.4765 61.4278 60.0655 65.0066C59.5891 65.3206 59.4582 65.9609 59.7733 66.4373C60.0874 66.9137 60.7293 67.0435 61.2046 66.7294C71.9707 59.612 72.9929 44.3129 63.4978 35.7947ZM34.0723 61.1897H8.54065C8.1086 61.1897 7.75719 60.8372 7.75719 60.4046V50.2757C7.75719 49.8431 8.1086 49.4906 8.54065 49.4906H30.837C30.6635 53.5078 31.707 57.62 34.0723 61.1897ZM38.3833 34.9076C36.2892 36.5376 34.538 38.5878 33.2584 40.9019H8.54065C8.1086 40.9019 7.75719 40.5489 7.75719 40.1168V29.9879C7.75719 29.5553 8.1086 29.2028 8.54065 29.2028H37.5998C38.0324 29.2028 38.3833 29.5553 38.3833 29.9879V34.9076ZM44.0747 31.8346C42.8101 32.2646 41.5967 32.8237 40.4495 33.5014V29.9879C40.4495 28.4161 39.1715 27.1365 37.5998 27.1365H8.54065C6.96945 27.1365 5.69092 28.4161 5.69092 29.9879V40.1168C5.69092 41.688 6.96945 42.9676 8.54065 42.9676H32.2694C31.6856 44.3957 31.2712 45.8916 31.0394 47.4249H8.54065C6.96945 47.4249 5.69092 48.7045 5.69092 50.2757V60.4046C5.69092 61.9763 6.96945 63.2559 8.54065 63.2559H35.6494C37.3018 65.1534 39.3579 66.7561 41.6533 67.9017H3.32344C2.62917 67.9017 2.06573 67.3383 2.06573 66.6456V3.45909C2.06573 2.76588 2.62917 2.20299 3.32344 2.20299H42.817C43.5113 2.20299 44.0747 2.76588 44.0747 3.45909V31.8346Z" fill="#0057D9"/>
</g>
<defs>
<clipPath id="clip0">
<rect width="70" height="70" fill="white"/>
</clipPath>
</defs>
</svg>
