<svg width="42" height="42" viewBox="0 0 42 42" fill="none" xmlns="http://www.w3.org/2000/svg">
<g clip-path="url(#clip0)">
<path d="M9.66132 14.3022C9.3414 13.9823 8.82132 13.9823 8.50148 14.3022C8.18074 14.6229 8.18074 15.1422 8.50148 15.4621C8.8214 15.7829 9.34148 15.7829 9.66132 15.4621C9.98199 15.1422 9.98199 14.6229 9.66132 14.3022Z" fill="#0057D9"/>
<path d="M20.7703 36.7275C21.1319 36.2376 21.3274 35.6473 21.3274 35.0268C21.3274 33.4437 20.0395 32.1558 18.4564 32.1558H4.51156C3.74432 32.1558 3.02335 32.4544 2.48137 32.9965C1.93914 33.5386 1.64055 34.2595 1.64055 35.0268C1.64055 35.6624 1.84858 36.2503 2.19959 36.7265C0.893404 37.4132 0 38.7832 0 40.3586V41.1789C0 41.632 0.367337 41.9992 0.820314 41.9992H22.1477C22.6006 41.9992 22.968 41.632 22.968 41.1789V40.3586C22.968 38.7839 22.0755 37.4145 20.7703 36.7275ZM3.64137 34.1564C3.87361 33.9241 4.1827 33.7962 4.51156 33.7962H18.4564C19.1349 33.7962 19.6868 34.3482 19.6868 35.0266C19.6868 35.3556 19.5588 35.6646 19.3265 35.8969C19.0943 36.1292 18.7852 36.2571 18.4563 36.2571H4.51156C3.83308 36.2571 3.28117 35.7051 3.28117 35.0267C3.28117 34.6978 3.40906 34.3887 3.64137 34.1564ZM1.64055 40.3586C1.64055 39.0017 2.74452 37.8977 4.10141 37.8977H4.51156H18.4564H18.8666C20.2234 37.8977 21.3274 39.0017 21.3274 40.3586H1.64055Z" fill="#0057D9"/>
<path d="M41.2365 34.4638C40.9579 34.032 40.6255 33.6503 40.2484 33.329L36.4155 29.986C36.3857 29.9411 36.3511 29.8984 36.3114 29.8588C36.2448 29.7922 36.1693 29.7403 36.0891 29.7014L33.7712 27.6798L23.0423 18.3207C23.4815 17.8616 23.7233 17.2612 23.7233 16.6228C23.7233 15.965 23.4673 15.3469 23.0019 14.8816C22.799 14.6789 22.5683 14.5196 22.3218 14.4028L23.3144 13.4102C23.5918 13.484 23.8769 13.5217 24.1622 13.5217C25.0023 13.5216 25.8424 13.2019 26.4819 12.5624C27.1019 11.9425 27.4433 11.1185 27.4433 10.2421C27.4433 9.36577 27.1019 8.54176 26.482 7.92185L19.5218 0.961814C18.9019 0.341903 18.0778 0.000488281 17.2012 0.000488281C16.3251 0.000488281 15.5012 0.341903 14.8814 0.961814C14.0247 1.81855 13.7426 3.03499 14.0335 4.12946L4.13029 14.0326C3.85663 13.9599 3.5719 13.9215 3.28102 13.9215C2.40426 13.9215 1.58059 14.2626 0.961169 14.882C-0.318192 16.1613 -0.318192 18.243 0.961169 19.5225L7.92128 26.4827C8.56104 27.1224 9.40129 27.4422 10.2415 27.4422C11.0819 27.4422 11.9221 27.1224 12.5619 26.4827C13.4186 25.6259 13.7006 24.4095 13.4098 23.315L14.4003 22.3244C14.5193 22.573 14.6808 22.8024 14.8815 23.0029C15.3463 23.4677 15.9642 23.7237 16.6218 23.7237C17.2596 23.7237 17.8597 23.4823 18.3195 23.0436L29.747 36.1731C29.7785 36.2223 29.8152 36.2691 29.8582 36.3121C29.8729 36.3268 29.8885 36.3402 29.904 36.3534L33.3092 40.2659C33.3938 40.3658 33.4843 40.464 33.5782 40.558C34.5135 41.4929 35.7488 42.0002 37.0457 42.0002C37.2743 42.0002 37.5051 41.9845 37.7361 41.9525C39.2807 41.7387 40.6156 40.8147 41.3984 39.4171C42.2558 37.8853 42.192 35.9406 41.2365 34.4638ZM16.0416 2.1219C16.3516 1.81191 16.7635 1.64112 17.2013 1.64112C17.6397 1.64112 18.0519 1.81191 18.3618 2.1219L25.322 9.08202C25.632 9.39202 25.8027 9.80406 25.8027 10.2422C25.8027 10.6803 25.632 11.0924 25.3219 11.4024C24.6825 12.042 23.6419 12.042 23.0024 11.4024L16.042 4.44192C16.0418 4.44175 16.0417 4.44167 16.0416 4.4415C15.402 3.80199 15.402 2.76142 16.0416 2.1219ZM11.4018 25.3226C10.7621 25.9623 9.72105 25.9624 9.08137 25.3226L2.12126 18.3625C1.48149 17.7227 1.48149 16.6819 2.12126 16.0421C2.43068 15.7326 2.84264 15.5621 3.28102 15.5621C3.71931 15.5621 4.13102 15.7325 4.44036 16.0417L11.4017 23.0031C12.0414 23.6425 12.0414 24.6832 11.4018 25.3226ZM14.8555 19.5492L12.5618 21.843L5.60094 14.8821L14.8814 5.60151L21.8422 12.5624L19.5443 14.8603C19.5368 14.8674 19.5295 14.8743 19.5217 14.8821L14.8838 19.52C14.8742 19.5295 14.8649 19.5393 14.8555 19.5492ZM17.7845 21.2605C17.7828 21.2621 17.7813 21.2637 17.7796 21.2653L17.202 21.843C17.047 21.9979 16.841 22.0832 16.6217 22.0832C16.4024 22.0832 16.1964 21.9979 16.0415 21.8429C15.8864 21.6879 15.801 21.4816 15.801 21.2622C15.801 21.0475 15.8829 20.8454 16.0316 20.693L20.6911 16.0335C21.0105 15.723 21.5268 15.7268 21.8423 16.0421C21.9974 16.1971 22.0828 16.4033 22.0828 16.6228C22.0828 16.842 21.9976 17.0477 21.8422 17.2026L21.2679 17.7769C21.264 17.7808 21.2601 17.7847 21.2562 17.7887L17.7845 21.2605ZM19.4832 21.8819L21.8806 19.4844L32.0314 28.3385L28.3273 32.0426L19.4832 21.8819ZM29.4069 33.2831L33.2705 29.4194L34.5098 30.5003L30.4865 34.5237L29.4069 33.2831ZM39.967 38.6156C39.4376 39.5609 38.5425 40.1847 37.5113 40.3275C36.4825 40.4699 35.4716 40.131 34.7381 39.3978C34.675 39.3348 34.6146 39.2691 34.5583 39.2025C34.5557 39.1994 34.5531 39.1962 34.5504 39.1932L31.5661 35.7641L35.7489 31.5812L39.1737 34.5685C39.1763 34.5708 39.1789 34.573 39.1816 34.5753C39.438 34.7933 39.6654 35.0551 39.8585 35.3541C40.4788 36.3127 40.5223 37.6235 39.967 38.6156Z" fill="#0057D9"/>
<path d="M15.4616 8.50197C15.1412 8.18164 14.622 8.18164 14.3015 8.50197L10.8211 11.9824C10.5008 12.3027 10.5008 12.8221 10.8211 13.1424C10.9813 13.3026 11.1912 13.3827 11.4012 13.3827C11.6111 13.3827 11.821 13.3025 11.9812 13.1424L15.4616 9.66197C15.782 9.34172 15.782 8.82238 15.4616 8.50197Z" fill="#0057D9"/>
</g>
<defs>
<clipPath id="clip0">
<rect y="0.000488281" width="42" height="42" fill="white"/>
</clipPath>
</defs>
</svg>
