<svg width="174" height="34" viewBox="0 0 174 34" fill="none" xmlns="http://www.w3.org/2000/svg">
<path d="M0.914062 8.6H13.3441V11.438H4.45606V14.606H8.72406C10.5867 14.606 12.0021 14.9947 12.9701 15.772C13.9527 16.5493 14.4441 17.6713 14.4441 19.138C14.4441 20.678 13.9014 21.8733 12.8161 22.724C11.7307 23.5747 10.1981 24 8.21806 24H0.914062V8.6ZM8.02006 21.36C8.9294 21.36 9.62606 21.184 10.1101 20.832C10.5941 20.4653 10.8361 19.9373 10.8361 19.248C10.8361 17.8987 9.8974 17.224 8.02006 17.224H4.45606V21.36H8.02006Z" fill="white"/>
<path d="M28.5553 20.7H21.4053L20.0413 24H16.3893L23.2533 8.6H26.7733L33.6593 24H29.9193L28.5553 20.7ZM27.4333 17.994L24.9913 12.098L22.5493 17.994H27.4333Z" fill="white"/>
<path d="M50.9256 8.6V24H47.3616V17.686H40.3656V24H36.8016V8.6H40.3656V14.672H47.3616V8.6H50.9256Z" fill="white"/>
<path d="M61.846 17.796H59.382V24H55.84V8.6H59.382V14.826H61.934L65.982 8.6H69.744L64.706 16.036L69.898 24H65.85L61.846 17.796Z" fill="white"/>
<path d="M79.3336 8.6C80.6976 8.6 81.8783 8.82733 82.8756 9.282C83.8876 9.73667 84.6649 10.382 85.2076 11.218C85.7502 12.054 86.0216 13.044 86.0216 14.188C86.0216 15.3173 85.7502 16.3073 85.2076 17.158C84.6649 17.994 83.8876 18.6393 82.8756 19.094C81.8783 19.534 80.6976 19.754 79.3336 19.754H76.2316V24H72.6676V8.6H79.3336ZM79.1356 16.85C80.2062 16.85 81.0202 16.6227 81.5776 16.168C82.1349 15.6987 82.4136 15.0387 82.4136 14.188C82.4136 13.3227 82.1349 12.6627 81.5776 12.208C81.0202 11.7387 80.2062 11.504 79.1356 11.504H76.2316V16.85H79.1356Z" fill="white"/>
<path d="M97.0355 24.264C95.4368 24.264 93.9922 23.9193 92.7015 23.23C91.4255 22.5407 90.4208 21.5947 89.6875 20.392C88.9688 19.1747 88.6095 17.8107 88.6095 16.3C88.6095 14.7893 88.9688 13.4327 89.6875 12.23C90.4208 11.0127 91.4255 10.0593 92.7015 9.37C93.9922 8.68067 95.4368 8.336 97.0355 8.336C98.6342 8.336 100.071 8.68067 101.347 9.37C102.623 10.0593 103.628 11.0127 104.361 12.23C105.095 13.4327 105.462 14.7893 105.462 16.3C105.462 17.8107 105.095 19.1747 104.361 20.392C103.628 21.5947 102.623 22.5407 101.347 23.23C100.071 23.9193 98.6342 24.264 97.0355 24.264ZM97.0355 21.228C97.9448 21.228 98.7662 21.0227 99.4995 20.612C100.233 20.1867 100.805 19.6 101.215 18.852C101.641 18.104 101.854 17.2533 101.854 16.3C101.854 15.3467 101.641 14.496 101.215 13.748C100.805 13 100.233 12.4207 99.4995 12.01C98.7662 11.5847 97.9448 11.372 97.0355 11.372C96.1262 11.372 95.3048 11.5847 94.5715 12.01C93.8382 12.4207 93.2588 13 92.8335 13.748C92.4228 14.496 92.2175 15.3467 92.2175 16.3C92.2175 17.2533 92.4228 18.104 92.8335 18.852C93.2588 19.6 93.8382 20.1867 94.5715 20.612C95.3048 21.0227 96.1262 21.228 97.0355 21.228Z" fill="white"/>
<path d="M120.862 11.504H115.934V24H112.414V11.504H107.508V8.6H120.862V11.504Z" fill="white"/>
<path d="M129 7C129 3.13401 132.134 0 136 0H167C170.866 0 174 3.13401 174 7V27C174 30.866 170.866 34 167 34H136C132.134 34 129 30.866 129 27V7Z" fill="#53C7F0"/>
<path d="M149.773 21.58V24H138.421V22.086L144.537 16.278C145.226 15.618 145.688 15.046 145.923 14.562C146.172 14.0633 146.297 13.572 146.297 13.088C146.297 12.3693 146.055 11.8193 145.571 11.438C145.087 11.0567 144.376 10.866 143.437 10.866C141.868 10.866 140.665 11.4013 139.829 12.472L137.827 10.932C138.428 10.1253 139.235 9.502 140.247 9.062C141.274 8.60733 142.418 8.38 143.679 8.38C145.351 8.38 146.686 8.776 147.683 9.568C148.68 10.36 149.179 11.438 149.179 12.802C149.179 13.638 149.003 14.4227 148.651 15.156C148.299 15.8893 147.624 16.7253 146.627 17.664L142.513 21.58H149.773Z" fill="white"/>
<path d="M157.716 8.38C159.828 8.38 161.463 9.04 162.622 10.36C163.795 11.68 164.382 13.572 164.382 16.036C164.382 17.7667 164.067 19.248 163.436 20.48C162.805 21.6973 161.918 22.6287 160.774 23.274C159.645 23.9047 158.332 24.22 156.836 24.22C156.044 24.22 155.296 24.1393 154.592 23.978C153.903 23.802 153.301 23.5527 152.788 23.23L153.844 21.074C154.607 21.5727 155.582 21.822 156.77 21.822C158.251 21.822 159.41 21.3673 160.246 20.458C161.082 19.5487 161.5 18.236 161.5 16.52V16.498C161.045 17.026 160.466 17.4293 159.762 17.708C159.058 17.972 158.266 18.104 157.386 18.104C156.374 18.104 155.465 17.9133 154.658 17.532C153.851 17.136 153.221 16.5787 152.766 15.86C152.311 15.1413 152.084 14.3127 152.084 13.374C152.084 12.3767 152.333 11.504 152.832 10.756C153.331 9.99333 154.005 9.40667 154.856 8.996C155.707 8.58533 156.66 8.38 157.716 8.38ZM157.936 15.86C158.86 15.86 159.608 15.6107 160.18 15.112C160.767 14.6133 161.06 13.9827 161.06 13.22C161.06 12.472 160.774 11.856 160.202 11.372C159.645 10.8733 158.867 10.624 157.87 10.624C156.975 10.624 156.249 10.866 155.692 11.35C155.135 11.8193 154.856 12.45 154.856 13.242C154.856 14.0487 155.135 14.6867 155.692 15.156C156.249 15.6253 156.997 15.86 157.936 15.86Z" fill="white"/>
</svg>
