<svg width="70" height="70" viewBox="0 0 70 70" fill="none" xmlns="http://www.w3.org/2000/svg">
<g clip-path="url(#clip0)">
<path d="M33.3016 69.2427C32.3357 68.167 9.64868 42.6993 9.64868 25.3512C9.64882 11.3725 21.0214 0 35.0002 0C48.979 0 60.3514 11.3725 60.3514 25.3512C60.3514 42.6992 37.6644 68.167 36.6985 69.2427C35.7911 70.2535 34.2069 70.2514 33.3016 69.2427Z" fill="#0057D9"/>
<path d="M60.3513 25.3512C60.3513 11.3725 48.9788 0 35.0002 0V70C35.6226 70 36.2452 69.748 36.6987 69.2427C37.6643 68.1671 60.3513 42.6993 60.3513 25.3512Z" fill="#003E9A"/>
<path d="M35.0002 38.1061C27.9672 38.1061 22.2456 32.3843 22.2456 25.3512C22.2456 18.3181 27.9674 12.5963 35.0002 12.5963C42.0331 12.5963 47.7549 18.3181 47.7549 25.3512C47.7549 32.3843 42.0331 38.1061 35.0002 38.1061Z" fill="#EFEFEF"/>
</g>
<defs>
<clipPath id="clip0">
<path d="M0 0H70V70H0V0Z" fill="white"/>
</clipPath>
</defs>
</svg>
